<svg xmlns="http://www.w3.org/2000/svg" viewBox="0 0 522 756.325"><g clip-path="url(#__lottie_element_87)"><g style="display:block"><path fill="#EEF9F1" d="M0 20C0 8.955 8.954 0 20 0h482c11.046 0 20 8.954 20 20v635c0 11.046-8.954 20-20 20H20c-11.046 0-20-8.954-20-20z"/><path fill="#E8E6F7" d="M20 675h482c11.046 0 20-8.954 20-20V365.273H384.992c-1.302 0-2.601.011-3.903.023-81.982.936-160.495 31.295-219.303 84.855L0 597.518V655c0 11.046 8.954 20 20 20"/><path fill="#F6C0A1" d="M379.377 626.092a66 66 0 0 0-.533 8.437c0 5.188.58 10.047 1.634 14.221a213 213 0 0 1 4.623 26.25h40.385V515.757h-48.198s2.138 41.336 3.618 70.469c.688 13.307.176 26.65-1.529 39.866"/><path fill="#CAA289" d="M403.905 675h43.829l14.157-152.641-57.277-5.057s-.056 41.356-.11 70.547a222 222 0 0 1-3.64 39.752 65 65 0 0 0-.968 8.342c-.273 5.195.051 10.113.887 14.377a212 212 0 0 1 3.122 24.68"/><path fill="#F6C0A1" d="M411.602 626.092a66 66 0 0 0-.533 8.437c0 5.188.58 10.047 1.633 14.221a213 213 0 0 1 4.623 26.25h43.525a164 164 0 0 0-1.4-8.093 135.8 135.8 0 0 1-.395-51.345l18.411-99.805h-67.954s2.142 41.336 3.621 70.469c.686 13.307.173 26.65-1.531 39.866"/><path fill="#203741" d="M353.531 206.016c27.349 0 49.518-23.142 49.518-51.688s-22.169-51.688-49.518-51.688c-27.348 0-49.518 23.141-49.518 51.688 0 28.546 22.17 51.688 49.518 51.688"/><path fill="#203741" d="M387.798 129.234c13.103 0 23.724-11.021 23.724-24.617S400.901 80 387.798 80s-23.725 11.021-23.725 24.617 10.622 24.617 23.725 24.617"/><path fill="#F6C0A1" d="m462.497 276.5-8.633 42.792-52.603-10.259-9.981 123.909s6.752 24.271 5.989 36.567c-.761 12.297-13.252 10.461-13.252 10.461s-4.391 3.453-8.858 1.48c-4.468-1.974-14.324-3.406-11.616-13.976s8.959-34.558 8.959-34.558L361.079 292a19.885 19.885 0 0 1 21.287-21.432z"/><path fill="#FFFEFF" d="m470.806 567.472-96.675-1.373.789-129.787 31.988-24.601 37.877-4.977L464.861 427l11.668 8.009q.295.788.69 1.531c26.05 43.788-6.413 130.932-6.413 130.932"/><path fill="#ADA2E2" d="m482.879 435.006-25.495.18h-.148c-11.409-.001-20.737-9.095-21.03-20.5a20.52 20.52 0 0 1-5.661 14.716 20.5 20.5 0 0 1-14.433 6.351l-47.462.973c14.148-51.035.059-93.866-11.687-117.78a41.04 41.04 0 0 1 3.526-42.207l14.907-20.641 4.353-6.018 16.332-22.615 9.373-12.961q3.875.357 7.758.9a139 139 0 0 1 22.298 4.973 106.5 106.5 0 0 1 19.649 8.342 83.8 83.8 0 0 1 18.024 13.275l.785.762a35.16 35.16 0 0 1 10.223 20.027c4.098 27.713 14.019 94.842 14.019 94.842l-24.536 22.77s-8.056 19.471 9.205 54.611"/><path fill="#8E8AB9" d="m454.188 380.889-14.57-102.86 26.33 95.736z"/><path fill="#F6C0A1" d="m374.272 211.884 17.636 20.513a11.223 11.223 0 0 0 17.229-.247l6.399-7.893-34.534-33.376z"/><path fill="#CAA289" d="m380.669 198.27 3.432 25.044-17.536-20.411 17.351-6.209"/><path fill="#F6C0A1" d="M309.801 172.674s1.945 10.966 14.768 18.946c4.602 2.859 4.471 9.2 4.792 14.386a3.11 3.11 0 0 0 3.33 2.863c2.506-.173 5.673-.402 5.673-.402l16.083 15.065a8.81 8.81 0 0 0 10.211 1.319c6.337-3.51 15.209-11.542 19.255-28.155 7.61-31.245-38.275-19.629-74.112-24.022M455.149 228.709a103 103 0 0 1-11.953 7.869c-21.78 12.333-47.025 17.278-63.447 13.492l16.332-22.614c7.03-4.951 13.295-11.381 17.121-12.062a139 139 0 0 1 22.298 4.973 106.5 106.5 0 0 1 19.649 8.342"/><path fill="#F6C0A1" d="M400.779 198.702c-9.525-8.633-12.878-25.67-12.878-32.636 0-5.311-3.421-9.62-7.646-9.62-4.226 0-7.647 4.307-7.647 9.62 0 3.574 1.546 6.689 3.846 8.347l-16.641 16.467 41.119 25.207 47.89 9.415s-35.191-15.16-48.043-26.8M499.825 368.434c-4.475-30.209-11.766-79.487-11.766-79.487l-42.047 11.719 8.472 31.165 13.66 50.257a12.384 12.384 0 0 0 11.854 9.138 19.884 19.884 0 0 0 19.827-22.792"/></g><g style="display:block"><path fill="#CEDCD1" d="M263.948 685.993h5.006V546.362h-5.006z"/><path fill="#F8DD8A" d="M293.547 540c14.602-14.601 14.602-38.274 0-52.876s-38.275-14.602-52.876 0c-14.602 14.602-14.602 38.275 0 52.876 14.601 14.602 38.274 14.602 52.876 0"/><path fill="#18C75A" d="M263.953 582.384c0-18.579-15.061-33.641-33.64-33.641.001 18.578 15.062 33.638 33.64 33.638z"/><path fill="#007E54" d="M268.955 592.88a33.636 33.636 0 0 1 33.64-33.638c0 18.579-15.061 33.64-33.64 33.64z"/><path fill="#F8F8DF" d="M270.201 528.403v3.091h-5.728v-3.032c-6.26-.866-8.633-4.933-8.633-8.779h6.241c0 2.22 1.79 3.72 4.979 3.72 3.486 0 4.882-1.023 4.882-3.051 0-1.85-1.909-2.617-5.372-3.404-4.509-1.083-10.059-2.857-10.059-8.524 0-4.095 2.637-7.087 7.972-7.756v-3.411h5.728v3.561c4.762.928 7.126 3.92 7.126 8.141h-6.24c0-1.497-1.064-2.995-4.33-2.995-3.328 0-4.018 1.28-4.018 2.502 0 1.71 1.773 2.557 5.986 3.346 5.373 1.083 9.527 3.345 9.527 8.562-.01 4.467-3.16 7.222-8.061 8.029"/></g><g style="display:block"><path fill="#CEDCD1" d="M164.453 756.325h6.246v-378.33h-6.246z"/><path fill="#DCA437" d="M201.396 380.497c18.224-18.225 18.224-47.772 0-65.996-18.225-18.225-47.772-18.225-65.996 0-18.225 18.224-18.225 47.771 0 65.996 18.224 18.224 47.771 18.224 65.996 0"/><path fill="#007E54" d="M164.46 446.881a37.227 37.227 0 0 0-37.223-37.224h-4.763v4.763a37.22 37.22 0 0 0 10.903 26.319 37.22 37.22 0 0 0 26.32 10.906h4.763z"/><path fill="#7AE3A7" d="M170.704 431.213c0-20.559 16.666-37.225 37.224-37.225h4.761v4.761a37.214 37.214 0 0 1-37.222 37.22h-4.763z"/><path fill="#F8DD8A" d="M171.8 364.326v3.635h-6.737v-3.568c-7.363-1.018-10.168-5.807-10.168-10.316h7.34c0 2.614 2.105 4.373 5.855 4.373 4.096 0 5.742-1.203 5.742-3.586 0-2.176-2.246-3.08-6.319-4.007-5.3-1.273-11.84-3.356-11.84-10.023 0-4.816 3.103-8.334 9.373-9.128v-4.005h6.736v4.192c5.601 1.088 8.388 4.607 8.388 9.562h-7.33c0-1.759-1.249-3.52-5.09-3.52-3.912 0-4.724 1.505-4.724 2.941 0 2.014 2.084 3.009 7.037 3.946 6.319 1.273 11.204 3.946 11.204 10.068 0 5.248-3.702 8.486-9.467 9.436"/></g><g style="display:block"><path fill="#18C75A" d="m299.529 378.268-45.77 45.25a4.2 4.2 0 0 1-7.006-1.965 4.2 4.2 0 0 1 1.134-4.046l48.346-47.77a4.19 4.19 0 0 1 5.32-.45s12.734 8.796 21.187 21.77c5.362 8.23 8.95 18.084 7.173 28.435-1.19 6.906-4.752 14.11-12.004 21.187a4.199 4.199 0 0 1-5.865-6.01c5.722-5.57 8.67-11.158 9.595-16.612 1.41-8.186-1.69-15.914-5.92-22.424-5.251-8.049-12.35-14.302-16.19-17.365"/><path fill="#1F6B45" d="m232.115 468.52-26.198-28.597 41.013-38.328c12.01-11.227 30.848-10.594 42.077 1.416 9.62 10.298 21.169 22.65 31.118 33.3a33.755 33.755 0 0 1-1.614 47.712l-19.04 17.791c-10.561 9.874-27.101 9.412-37.095-1.035l-1.998-2.09a34.6 34.6 0 0 0-18.614-10.086l-52.006-9.744-8.732 2.079a4.602 4.602 0 0 1-5.673-4.354c-.072-2.712-.158-6.033-.247-9.062a4.6 4.6 0 0 1 7.09-3.988l7.74 4.985z"/></g><path fill="#F6C0A1" d="M105.603-8.407c-1.754-11.838-12.81-19.988-24.636-18.159l-15.085 2.332L-56.979-5.242s-24.699-4.968-36.909-3.311-9.461 13.97-9.461 13.97-3.134 4.631-.822 8.941c2.311 4.309 4.44 14.037 14.786 10.564 10.344-3.473 33.812-11.452 33.812-11.452l141.379 1.128a19.886 19.886 0 0 0 19.827-22.793z" style="display:block" transform="translate(394.191 376.628)"/><g style="display:block"><path fill="#CEDCD1" d="M142.322 700h6.246V196.826h-6.246z"/><path fill="#18C75A" d="M150.311 198.732c32.553-2.265 57.106-30.49 54.841-63.044s-30.491-57.107-63.044-54.842C109.554 83.11 85 111.336 87.266 143.89c2.264 32.554 30.491 57.108 63.045 54.842M142.276 286.825a52.667 52.667 0 0 0-52.673-52.673h-6.734v6.735a52.67 52.67 0 0 0 52.673 52.673h6.736z"/><path fill="#007F55" d="M148.161 529.068c-.001-9.636 3.389-18.876 9.424-25.689 6.034-6.812 14.218-10.638 22.751-10.637h4.113v4.644c.001 9.635-3.389 18.876-9.423 25.689s-14.218 10.638-22.751 10.637h-4.115z"/><path fill="#7AE4A7" d="M141.809 629.767c0-6.41-2.297-12.56-6.388-17.093s-9.639-7.078-15.424-7.078h-2.788v3.09c0 6.411 2.297 12.56 6.388 17.093s9.638 7.08 15.423 7.079h2.79z"/><path fill="#E5F8E8" d="M151.151 161.699v4.827h-8.95v-4.736c-9.778-1.352-13.496-7.718-13.496-13.712h9.744c0 3.473 2.8 5.811 7.78 5.811 5.444 0 7.627-1.601 7.627-4.768 0-2.889-2.982-4.09-8.387-5.318-7.042-1.692-15.715-4.459-15.715-13.32 0-6.396 4.123-11.07 12.455-12.116v-5.308h8.949v5.565c7.436 1.44 11.137 6.115 11.137 12.688h-9.761c0-2.339-1.66-4.675-6.766-4.675-5.197 0-6.273 1.999-6.273 3.905 0 2.674 2.768 3.999 9.349 5.227 8.387 1.692 14.881 5.227 14.881 13.377 0 6.988-4.917 11.292-12.574 12.553"/></g></g></svg>