<svg xmlns="http://www.w3.org/2000/svg" fill="none" viewBox="0 0 20 20"><path fill="#485256" d="m8 13.993 6-4.343-6-4.342zM10 0a10.26 10.26 0 0 0-5.556 1.626A9.73 9.73 0 0 0 .761 5.957a9.34 9.34 0 0 0-.569 5.576 9.55 9.55 0 0 0 2.737 4.941 10.1 10.1 0 0 0 5.12 2.641c1.94.372 3.95.181 5.778-.55a9.93 9.93 0 0 0 4.488-3.553A9.4 9.4 0 0 0 20 9.65c0-2.56-1.054-5.014-2.929-6.824S12.652 0 10 0m0 17.37a8.2 8.2 0 0 1-4.445-1.3 7.8 7.8 0 0 1-2.946-3.465 7.47 7.47 0 0 1-.455-4.46 7.64 7.64 0 0 1 2.19-3.954 8.1 8.1 0 0 1 4.095-2.113 8.27 8.27 0 0 1 4.623.44 7.95 7.95 0 0 1 3.59 2.843A7.53 7.53 0 0 1 18 9.651a7.59 7.59 0 0 1-2.343 5.458A8.15 8.15 0 0 1 10 17.37"/></svg>