<svg xmlns="http://www.w3.org/2000/svg" xmlns:xlink="http://www.w3.org/1999/xlink" viewBox="0 0 800 1000" width="800" height="1000" preserveAspectRatio="xMidYMid meet" style="width: 100%; height: 100%; transform: translate3d(0px, 0px, 0px); content-visibility: visible;"><defs><clipPath id="__lottie_element_48"><rect width="800" height="1000" x="0" y="0"></rect></clipPath><image xlink:href="/pfh/assets/animations/images/img_5.png"></image><mask id="__lottie_element_69"><path fill="#ffffff" clip-rule="nonzero" d="M0,0  h800 v1000 h-800 v-1000  M-3.6410000324249268,-19.240999221801758 C-3.6410000324249268,-19.240999221801758 -197.2030029296875,-19.240999221801758 -197.2030029296875,-19.240999221801758 C-197.2030029296875,-19.240999221801758 -197.2030029296875,51.534000396728516 -197.2030029296875,51.534000396728516 C-197.2030029296875,51.534000396728516 -3.6410000324249268,51.534000396728516 -3.6410000324249268,51.534000396728516 C-3.6410000324249268,51.534000396728516 -3.6410000324249268,-19.240999221801758 -3.6410000324249268,-19.240999221801758" fill-opacity="1"></path></mask><clipPath id="__lottie_element_72"><path fill="#ffffff" clip-rule="nonzero" d=" M-3.6410000324249268,-19.240999221801758 C-3.6410000324249268,-19.240999221801758 -197.2030029296875,-19.240999221801758 -197.2030029296875,-19.240999221801758 C-197.2030029296875,-19.240999221801758 -197.2030029296875,51.534000396728516 -197.2030029296875,51.534000396728516 C-197.2030029296875,51.534000396728516 -3.6410000324249268,51.534000396728516 -3.6410000324249268,51.534000396728516 C-3.6410000324249268,51.534000396728516 -3.6410000324249268,-19.240999221801758 -3.6410000324249268,-19.240999221801758" fill-opacity="1"></path></clipPath></defs><g clip-path="url(#__lottie_element_48)"><g style="display: block;" transform="matrix(2.5618999004364014,0,0,2.5618999004364014,131.00051879882812,140.45782470703125)" opacity="1"><g opacity="1" transform="matrix(1,0,0,1,105,138)"><path fill="rgb(255,254,255)" fill-opacity="1" d=" M-105,-106 C-105,-117.20099639892578 -105,-122.802001953125 -102.81999969482422,-127.08000183105469 C-100.90299987792969,-130.84300231933594 -97.84300231933594,-133.9029998779297 -94.08000183105469,-135.82000732421875 C-89.802001953125,-138 -84.20099639892578,-138 -73,-138 C-73,-138 73,-138 73,-138 C84.20099639892578,-138 89.802001953125,-138 94.08000183105469,-135.82000732421875 C97.84300231933594,-133.9029998779297 100.90299987792969,-130.84300231933594 102.81999969482422,-127.08000183105469 C105,-122.802001953125 105,-117.20099639892578 105,-106 C105,-106 105,106 105,106 C105,117.20099639892578 105,122.802001953125 102.81999969482422,127.08000183105469 C100.90299987792969,130.84300231933594 97.84300231933594,133.9029998779297 94.08000183105469,135.82000732421875 C89.802001953125,138 84.20099639892578,138 73,138 C73,138 -73,138 -73,138 C-84.20099639892578,138 -89.802001953125,138 -94.08000183105469,135.82000732421875 C-97.84300231933594,133.9029998779297 -100.90299987792969,130.84300231933594 -102.81999969482422,127.08000183105469 C-105,122.802001953125 -105,117.20099639892578 -105,106 C-105,106 -105,-106 -105,-106z"></path><path stroke-linecap="butt" stroke-linejoin="miter" fill-opacity="0" stroke-miterlimit="4" stroke="rgb(227,228,229)" stroke-opacity="1" stroke-width="1" d=" M-105,-106 C-105,-117.20099639892578 -105,-122.802001953125 -102.81999969482422,-127.08000183105469 C-100.90299987792969,-130.84300231933594 -97.84300231933594,-133.9029998779297 -94.08000183105469,-135.82000732421875 C-89.802001953125,-138 -84.20099639892578,-138 -73,-138 C-73,-138 73,-138 73,-138 C84.20099639892578,-138 89.802001953125,-138 94.08000183105469,-135.82000732421875 C97.84300231933594,-133.9029998779297 100.90299987792969,-130.84300231933594 102.81999969482422,-127.08000183105469 C105,-122.802001953125 105,-117.20099639892578 105,-106 C105,-106 105,106 105,106 C105,117.20099639892578 105,122.802001953125 102.81999969482422,127.08000183105469 C100.90299987792969,130.84300231933594 97.84300231933594,133.9029998779297 94.08000183105469,135.82000732421875 C89.802001953125,138 84.20099639892578,138 73,138 C73,138 -73,138 -73,138 C-84.20099639892578,138 -89.802001953125,138 -94.08000183105469,135.82000732421875 C-97.84300231933594,133.9029998779297 -100.90299987792969,130.84300231933594 -102.81999969482422,127.08000183105469 C-105,122.802001953125 -105,117.20099639892578 -105,106 C-105,106 -105,-106 -105,-106z"></path></g></g><g style="display: none;" transform="matrix(0.506240725517273,0,0,0.506240725517273,278.5022277832031,438.1742248535156)" opacity="0.018043626939858087"><image width="480px" height="505px" preserveAspectRatio="xMidYMid slice" xlink:href="/pfh/assets/animations/images/img_5.png"></image></g><g style="display: none;" transform="matrix(0.33000001311302185,0,0,0.33000001311302185,632.530517578125,799.2984619140625)" opacity="1"><g opacity="1" transform="matrix(1,0,0,1,159.02699279785156,80.68099975585938)"><path fill="rgb(31,55,65)" fill-opacity="1" d=" M123.23699951171875,-4.948999881744385 C123.23699951171875,-4.948999881744385 108.24400329589844,-27.158000946044922 108.24400329589844,-27.158000946044922 C113.0510025024414,-32.63800048828125 115.48500061035156,-39.86800003051758 115.48500061035156,-48.67100143432617 C115.48500061035156,-61.53099822998047 109.93299865722656,-68.6719970703125 105.28700256347656,-72.38999938964844 C99.12799835205078,-77.40699768066406 90.61100006103516,-79.84600067138672 79.25299835205078,-79.84600067138672 C79.25299835205078,-79.84600067138672 -9.373000144958496,-79.84600067138672 -9.373000144958496,-79.84600067138672 C-9.373000144958496,-79.84600067138672 -9.373000144958496,-73.65499877929688 -9.373000144958496,-73.65499877929688 C-10.352999687194824,-74.3010025024414 -11.361000061035156,-74.90499877929688 -12.392000198364258,-75.45999908447266 C-18.81999969482422,-78.92500305175781 -26.097999572753906,-80.68199920654297 -34.020999908447266,-80.68199920654297 C-37.00699996948242,-80.68199920654297 -40.027000427246094,-80.4010009765625 -43.000999450683594,-79.84600067138672 C-43.000999450683594,-79.84600067138672 -80.39900207519531,-79.84600067138672 -80.39900207519531,-79.84600067138672 C-80.39900207519531,-79.84600067138672 -85.8550033569336,-70.7770004272461 -85.8550033569336,-70.7770004272461 C-85.8550033569336,-70.7770004272461 -91.29199981689453,-79.84600067138672 -91.29199981689453,-79.84600067138672 C-91.29199981689453,-79.84600067138672 -134.16200256347656,-79.84600067138672 -134.16200256347656,-79.84600067138672 C-134.16200256347656,-79.84600067138672 -104.29900360107422,-32.36399841308594 -104.29900360107422,-32.36399841308594 C-104.29900360107422,-32.36399841308594 -104.29900360107422,-4.948999881744385 -104.29900360107422,-4.948999881744385 C-104.29900360107422,-4.948999881744385 -159.02699279785156,-4.948999881744385 -159.02699279785156,-4.948999881744385 C-159.02699279785156,-4.948999881744385 -159.02699279785156,79.84500122070312 -159.02699279785156,79.84500122070312 C-159.02699279785156,79.84500122070312 -124.96900177001953,79.84500122070312 -124.96900177001953,79.84500122070312 C-118.71299743652344,79.84500122070312 -112.96399688720703,78.8270034790039 -107.88099670410156,76.81800079345703 C-105.39800262451172,75.83499908447266 -103.06199645996094,74.61299896240234 -100.90599822998047,73.16799926757812 C-100.90599822998047,73.16799926757812 -100.90599822998047,79.84500122070312 -100.90599822998047,79.84500122070312 C-100.90599822998047,79.84500122070312 -41.483001708984375,79.84500122070312 -41.483001708984375,79.84500122070312 C-41.483001708984375,79.84500122070312 -41.483001708984375,77.7020034790039 -41.483001708984375,77.7020034790039 C-36.50899887084961,79.68000030517578 -30.957000732421875,80.68099975585938 -24.94300079345703,80.68099975585938 C-18.363000869750977,80.68099975585938 -12.447999954223633,79.45800018310547 -7.317999839782715,77.04000091552734 C-7.317999839782715,77.04000091552734 -7.317999839782715,79.84500122070312 -7.317999839782715,79.84500122070312 C-7.317999839782715,79.84500122070312 29.618999481201172,79.84500122070312 29.618999481201172,79.84500122070312 C29.618999481201172,79.84500122070312 29.618999481201172,72.97799682617188 29.618999481201172,72.97799682617188 C32.28200149536133,74.84700012207031 35.20000076293945,76.41100311279297 38.32899856567383,77.64099884033203 C43.46099853515625,79.65799713134766 49.01900100708008,80.68099975585938 54.85100173950195,80.68099975585938 C57.893001556396484,80.68099975585938 60.82899856567383,80.4000015258789 63.577999114990234,79.84500122070312 C63.577999114990234,79.84500122070312 117.77400207519531,79.84500122070312 117.77400207519531,79.84500122070312 C117.77400207519531,79.84500122070312 117.77400207519531,67.32599639892578 117.77400207519531,67.32599639892578 C117.77400207519531,67.32599639892578 125.53099822998047,79.84500122070312 125.53099822998047,79.84500122070312 C125.53099822998047,79.84500122070312 159.02699279785156,79.84500122070312 159.02699279785156,79.84500122070312 C159.02699279785156,79.84500122070312 159.02699279785156,-4.948999881744385 159.02699279785156,-4.948999881744385 C159.02699279785156,-4.948999881744385 123.23699951171875,-4.948999881744385 123.23699951171875,-4.948999881744385z M-49.88100051879883,-64.72100067138672 C-45.2140007019043,-67.22899627685547 -39.926998138427734,-68.48200225830078 -34.02000045776367,-68.48200225830078 C-28.11199951171875,-68.48200225830078 -22.83300018310547,-67.22899627685547 -18.18000030517578,-64.72100067138672 C-13.526000022888184,-62.2130012512207 -9.862000465393066,-58.597999572753906 -7.188000202178955,-53.875 C-4.513000011444092,-49.152000427246094 -3.174999952316284,-43.683998107910156 -3.174999952316284,-37.470001220703125 C-3.174999952316284,-31.28499984741211 -4.513000011444092,-25.822999954223633 -7.188000202178955,-21.086000442504883 C-9.862000465393066,-16.350000381469727 -13.532999992370605,-12.720000267028809 -18.200000762939453,-10.199000358581543 C-22.867000579833984,-7.677000045776367 -28.141000747680664,-6.415999889373779 -34.02000045776367,-6.415999889373779 C-39.926998138427734,-6.415999889373779 -45.2140007019043,-7.677000045776367 -49.88100051879883,-10.199000358581543 C-54.54899978637695,-12.720000267028809 -58.220001220703125,-16.350000381469727 -60.89500045776367,-21.086000442504883 C-63.569000244140625,-25.822999954223633 -64.90699768066406,-31.28499984741211 -64.90699768066406,-37.470001220703125 C-64.90699768066406,-43.683998107910156 -63.569000244140625,-49.152000427246094 -60.89500045776367,-53.875 C-58.220001220703125,-58.597999572753906 -54.54899978637695,-62.2130012512207 -49.88100051879883,-64.72100067138672z M-97.98899841308594,49.79899978637695 C-99.2020034790039,53.47700119018555 -100.98500061035156,56.645999908447266 -103.33999633789062,59.30699920654297 C-105.69400024414062,61.96799850463867 -108.7030029296875,64.02300262451172 -112.36699676513672,65.47200012207031 C-116.03099822998047,66.9209976196289 -120.23200225830078,67.64600372314453 -124.96900177001953,67.64600372314453 C-124.96900177001953,67.64600372314453 -146.8280029296875,67.64600372314453 -146.8280029296875,67.64600372314453 C-146.8280029296875,67.64600372314453 -146.8280029296875,7.250999927520752 -146.8280029296875,7.250999927520752 C-146.8280029296875,7.250999927520752 -124.96900177001953,7.250999927520752 -124.96900177001953,7.250999927520752 C-120.23200225830078,7.250999927520752 -116.03099822998047,7.974999904632568 -112.36699676513672,9.423999786376953 C-108.7030029296875,10.87399959564209 -105.69400024414062,12.928000450134277 -103.33999633789062,15.58899974822998 C-100.98500061035156,18.25 -99.2020034790039,21.41900062561035 -97.98899841308594,25.097999572753906 C-96.7770004272461,28.775999069213867 -96.1719970703125,32.8849983215332 -96.1719970703125,37.426998138427734 C-96.1719970703125,41.99800109863281 -96.7770004272461,46.12099838256836 -97.98899841308594,49.79899978637695z M-112.0770034790039,-67.64600372314453 C-112.0770034790039,-67.64600372314453 -98.20099639892578,-67.64600372314453 -98.20099639892578,-67.64600372314453 C-98.20099639892578,-67.64600372314453 -85.87100219726562,-47.08300018310547 -85.87100219726562,-47.08300018310547 C-85.87100219726562,-47.08300018310547 -73.5,-67.64600372314453 -73.5,-67.64600372314453 C-73.5,-67.64600372314453 -59.66600036621094,-67.64600372314453 -59.66600036621094,-67.64600372314453 C-59.66600036621094,-67.64600372314453 -79.51899719238281,-36.17399978637695 -79.51899719238281,-36.17399978637695 C-79.51899719238281,-36.17399978637695 -79.51899719238281,-7.251999855041504 -79.51899719238281,-7.251999855041504 C-79.51899719238281,-7.251999855041504 -92.0989990234375,-7.251999855041504 -92.0989990234375,-7.251999855041504 C-92.0989990234375,-7.251999855041504 -92.0989990234375,-35.88199996948242 -92.0989990234375,-35.88199996948242 C-92.0989990234375,-35.88199996948242 -112.0770034790039,-67.64600372314453 -112.0770034790039,-67.64600372314453z M-53.68199920654297,18.28499984741211 C-53.68199920654297,18.28499984741211 -76.08399963378906,18.28499984741211 -76.08399963378906,18.28499984741211 C-76.08399963378906,18.28499984741211 -76.08399963378906,31.993999481201172 -76.08399963378906,31.993999481201172 C-76.08399963378906,31.993999481201172 -56.231998443603516,31.993999481201172 -56.231998443603516,31.993999481201172 C-56.231998443603516,31.993999481201172 -56.231998443603516,42.90299987792969 -56.231998443603516,42.90299987792969 C-56.231998443603516,42.90299987792969 -76.08399963378906,42.90299987792969 -76.08399963378906,42.90299987792969 C-76.08399963378906,42.90299987792969 -76.08399963378906,56.56999969482422 -76.08399963378906,56.56999969482422 C-76.08399963378906,56.56999969482422 -53.68199920654297,56.56999969482422 -53.68199920654297,56.56999969482422 C-53.68199920654297,56.56999969482422 -53.68199920654297,67.64600372314453 -53.68199920654297,67.64600372314453 C-53.68199920654297,67.64600372314453 -88.70700073242188,67.64600372314453 -88.70700073242188,67.64600372314453 C-88.70700073242188,67.64600372314453 -88.70700073242188,7.250999927520752 -88.70700073242188,7.250999927520752 C-88.70700073242188,7.250999927520752 -53.68199920654297,7.250999927520752 -53.68199920654297,7.250999927520752 C-53.68199920654297,7.250999927520752 -53.68199920654297,18.28499984741211 -53.68199920654297,18.28499984741211z M-8.642999649047852,63.67499923706055 C-12.795000076293945,66.87899780273438 -18.229000091552734,68.48200225830078 -24.94300079345703,68.48200225830078 C-31.60300064086914,68.48200225830078 -37.202999114990234,66.94200134277344 -41.744998931884766,63.862998962402344 C-46.2869987487793,60.78499984741211 -49.00400161743164,56.47200012207031 -49.895999908447266,50.926998138427734 C-49.895999908447266,50.926998138427734 -37.481998443603516,48.084999084472656 -37.481998443603516,48.084999084472656 C-36.61800003051758,51.48500061035156 -35.08599853515625,54.027000427246094 -32.8849983215332,55.7130012512207 C-30.68400001525879,57.39899826049805 -27.966999053955078,58.242000579833984 -24.733999252319336,58.242000579833984 C-21.920000076293945,58.242000579833984 -19.649999618530273,57.6349983215332 -17.922000885009766,56.42300033569336 C-16.194000244140625,55.21099853515625 -15.343999862670898,53.435001373291016 -15.371999740600586,51.09400177001953 C-15.371999740600586,50.007999420166016 -15.616000175476074,49.01900100708008 -16.104000091552734,48.12699890136719 C-16.590999603271484,47.236000061035156 -17.211000442504883,46.483001708984375 -17.964000701904297,45.87099838256836 C-18.715999603271484,45.25699996948242 -19.691999435424805,44.67900085449219 -20.888999938964844,44.1349983215332 C-22.086999893188477,43.59199905395508 -23.257999420166016,43.125 -24.400999069213867,42.736000061035156 C-25.54199981689453,42.345001220703125 -26.893999099731445,41.91400146484375 -28.45400047302246,41.439998626708984 C-28.900999069213867,41.29999923706055 -29.233999252319336,41.202999114990234 -29.457000732421875,41.14699935913086 C-31.04599952697754,40.645999908447266 -32.32699966430664,40.22800064086914 -33.303001403808594,39.893001556396484 C-34.277000427246094,39.558998107910156 -35.48899841308594,39.09199905395508 -36.93899917602539,38.49399948120117 C-38.38800048828125,37.89400100708008 -39.55799865722656,37.308998107910156 -40.44900131225586,36.737998962402344 C-41.340999603271484,36.16699981689453 -42.303001403808594,35.435001373291016 -43.33300018310547,34.542999267578125 C-44.36399841308594,33.652000427246094 -45.172000885009766,32.71799850463867 -45.757999420166016,31.743999481201172 C-46.34299850463867,30.76799964904785 -46.83000183105469,29.604999542236328 -47.22100067138672,28.253000259399414 C-47.61000061035156,26.902000427246094 -47.805999755859375,25.445999145507812 -47.805999755859375,23.885000228881836 C-47.805999755859375,20.26300048828125 -46.8650016784668,17.121999740600586 -44.98400115966797,14.460000038146973 C-43.104000091552734,11.800000190734863 -40.56800079345703,9.793000221252441 -37.37699890136719,8.442000389099121 C-34.1879997253418,7.091000080108643 -30.558000564575195,6.415999889373779 -26.48900032043457,6.415999889373779 C-23.73200035095215,6.415999889373779 -21.106000900268555,6.708000183105469 -18.611000061035156,7.291999816894531 C-16.117000579833984,7.877999782562256 -13.770000457763672,8.777000427246094 -11.567999839782715,9.98900032043457 C-9.366999626159668,11.201000213623047 -7.493000030517578,12.859000205993652 -5.947000026702881,14.961999893188477 C-4.401000022888184,17.06599998474121 -3.3350000381469727,19.51099967956543 -2.75,22.297000885009766 C-2.75,22.297000885009766 -14.118000030517578,25.097999572753906 -14.118000030517578,25.097999572753906 C-15.930000305175781,19.4689998626709 -19.80299949645996,16.655000686645508 -25.73699951171875,16.655000686645508 C-28.44099998474121,16.655000686645508 -30.676000595092773,17.232999801635742 -32.44499969482422,18.388999938964844 C-34.21500015258789,19.54599952697754 -35.099998474121094,21.225000381469727 -35.099998474121094,23.426000595092773 C-35.099998474121094,24.344999313354492 -34.869998931884766,25.180999755859375 -34.40999984741211,25.93400001525879 C-33.95000076293945,26.68600082397461 -33.45600128173828,27.298999786376953 -32.92599868774414,27.773000717163086 C-32.39699935913086,28.246999740600586 -31.5049991607666,28.74799919128418 -30.250999450683594,29.277000427246094 C-28.996999740600586,29.80699920654297 -28.000999450683594,30.19700050354004 -27.26300048828125,30.447999954223633 C-26.524999618530273,30.698999404907227 -25.29199981689453,31.075000762939453 -23.565000534057617,31.576000213623047 C-23.006999969482422,31.743999481201172 -22.589000701904297,31.868999481201172 -22.31100082397461,31.952999114990234 C-20.638999938964844,32.45399856567383 -19.29400062561035,32.87200164794922 -18.277000427246094,33.207000732421875 C-17.260000228881836,33.54100036621094 -15.970999717712402,34.02799987792969 -14.41100025177002,34.667999267578125 C-12.85099983215332,35.310001373291016 -11.583000183105469,35.93000030517578 -10.607999801635742,36.52899932861328 C-9.631999969482422,37.12699890136719 -8.567000389099121,37.90800094604492 -7.409999847412109,38.869998931884766 C-6.254000186920166,39.83100128173828 -5.355999946594238,40.84000015258789 -4.714000225067139,41.900001525878906 C-4.072999954223633,42.95899963378906 -3.5299999713897705,44.21900177001953 -3.0840001106262207,45.68199920654297 C-2.6389999389648438,47.14500045776367 -2.4149999618530273,48.72600173950195 -2.4149999618530273,50.42599868774414 C-2.4149999618530273,56.05400085449219 -4.491000175476074,60.470001220703125 -8.642999649047852,63.67499923706055z M2.8269999027252197,-28.399999618530273 C2.8269999027252197,-28.399999618530273 2.8269999027252197,-67.64600372314453 2.8269999027252197,-67.64600372314453 C2.8269999027252197,-67.64600372314453 15.366000175476074,-67.64600372314453 15.366000175476074,-67.64600372314453 C15.366000175476074,-67.64600372314453 15.366000175476074,-30.11400032043457 15.366000175476074,-30.11400032043457 C15.366000175476074,-25.76799964904785 16.375999450683594,-22.57699966430664 18.395999908447266,-20.542999267578125 C20.416000366210938,-18.509000778198242 23.097999572753906,-17.492000579833984 26.44099998474121,-17.492000579833984 C29.78499984741211,-17.492000579833984 32.48099899291992,-18.516000747680664 34.52899932861328,-20.56399917602539 C36.57699966430664,-22.61199951171875 37.60100173950195,-25.795000076293945 37.60100173950195,-30.11400032043457 C37.60100173950195,-30.11400032043457 37.60100173950195,-67.64600372314453 37.60100173950195,-67.64600372314453 C37.60100173950195,-67.64600372314453 50.13999938964844,-67.64600372314453 50.13999938964844,-67.64600372314453 C50.13999938964844,-67.64600372314453 50.13999938964844,-28.399999618530273 50.13999938964844,-28.399999618530273 C50.13999938964844,-24.69499969482422 49.534000396728516,-21.42099952697754 48.32099914550781,-18.57900047302246 C47.10900115966797,-15.736000061035156 45.42399978637695,-13.437999725341797 43.26499938964844,-11.682000160217285 C41.10499954223633,-9.927000045776367 38.611000061035156,-8.609999656677246 35.78300094604492,-7.732999801635742 C32.95500183105469,-6.855000019073486 29.840999603271484,-6.415999889373779 26.44099998474121,-6.415999889373779 C23.06999969482422,-6.415999889373779 19.97100067138672,-6.855000019073486 17.142000198364258,-7.732999801635742 C14.314000129699707,-8.609999656677246 11.82699966430664,-9.927000045776367 9.682000160217285,-11.682000160217285 C7.535999774932861,-13.437999725341797 5.85699987411499,-15.736000061035156 4.644999980926514,-18.57900047302246 C3.433000087738037,-21.42099952697754 2.8269999027252197,-24.69499969482422 2.8269999027252197,-28.399999618530273z M17.420000076293945,67.64600372314453 C17.420000076293945,67.64600372314453 4.88100004196167,67.64600372314453 4.88100004196167,67.64600372314453 C4.88100004196167,67.64600372314453 4.88100004196167,7.250999927520752 4.88100004196167,7.250999927520752 C4.88100004196167,7.250999927520752 17.420000076293945,7.250999927520752 17.420000076293945,7.250999927520752 C17.420000076293945,7.250999927520752 17.420000076293945,67.64600372314453 17.420000076293945,67.64600372314453z M84.36000061035156,67.64600372314453 C84.36000061035156,67.64600372314453 74.49600219726562,67.64600372314453 74.49600219726562,67.64600372314453 C74.49600219726562,67.64600372314453 74.49600219726562,59.2869987487793 74.49600219726562,59.2869987487793 C70.34500122070312,65.41699981689453 63.797000885009766,68.48200225830078 54.85200119018555,68.48200225830078 C50.53300094604492,68.48200225830078 46.513999938964844,67.75 42.79399871826172,66.28800201416016 C39.07400131225586,64.82499694824219 35.869998931884766,62.76900100708008 33.18199920654297,60.12300109863281 C30.492000579833984,57.474998474121094 28.388999938964844,54.21500015258789 26.8700008392334,50.34199905395508 C25.35099983215332,46.46900177001953 24.591999053955078,42.220001220703125 24.591999053955078,37.59400177001953 C24.591999053955078,32.91400146484375 25.371999740600586,28.615999221801758 26.93199920654297,24.701000213623047 C28.493000030517578,20.785999298095703 30.638999938964844,17.49799919128418 33.36899948120117,14.836999893188477 C36.0989990234375,12.175999641418457 39.367000579833984,10.107000350952148 43.16999816894531,8.630000114440918 C46.9739990234375,7.1539998054504395 51.07699966430664,6.415999889373779 55.479000091552734,6.415999889373779 C61.303001403808594,6.415999889373779 66.53399658203125,7.6479997634887695 71.17400360107422,10.11400032043457 C75.81199645996094,12.579999923706055 79.44200134277344,16.08300018310547 82.06099700927734,20.625 C82.06099700927734,20.625 71.31900024414062,26.39299964904785 71.31900024414062,26.39299964904785 C69.64700317382812,23.384000778198242 67.44599914550781,21.121000289916992 64.71600341796875,19.601999282836914 C61.98500061035156,18.08300018310547 58.90599822998047,17.323999404907227 55.479000091552734,17.323999404907227 C50.10100173950195,17.323999404907227 45.70600128173828,19.093000411987305 42.292999267578125,22.631000518798828 C38.87900161743164,26.170000076293945 37.17300033569336,31.059999465942383 37.17300033569336,37.301998138427734 C37.17300033569336,43.45899963378906 38.87200164794922,48.37699890136719 42.270999908447266,52.055999755859375 C45.67100143432617,55.73400115966797 50.22600173950195,57.573001861572266 55.9379997253418,57.573001861572266 C58.61399841308594,57.573001861572266 61.064998626708984,57.14099884033203 63.29499816894531,56.277000427246094 C65.52400207519531,55.41400146484375 67.4739990234375,54.01300048828125 69.14600372314453,52.07699966430664 C70.81800079345703,50.13999938964844 71.93199920654297,47.75 72.48999786376953,44.909000396728516 C72.48999786376953,44.909000396728516 55.97999954223633,44.909000396728516 55.97999954223633,44.909000396728516 C55.97999954223633,44.909000396728516 55.97999954223633,34.83599853515625 55.97999954223633,34.83599853515625 C55.97999954223633,34.83599853515625 84.36000061035156,34.83599853515625 84.36000061035156,34.83599853515625 C84.36000061035156,34.83599853515625 84.36000061035156,67.64600372314453 84.36000061035156,67.64600372314453z M78.2509994506836,-29.31999969482422 C78.2509994506836,-29.31999969482422 72.7750015258789,-29.31999969482422 72.7750015258789,-29.31999969482422 C72.7750015258789,-29.31999969482422 72.7750015258789,-7.251999855041504 72.7750015258789,-7.251999855041504 C72.7750015258789,-7.251999855041504 60.23699951171875,-7.251999855041504 60.23699951171875,-7.251999855041504 C60.23699951171875,-7.251999855041504 60.23699951171875,-67.64600372314453 60.23699951171875,-67.64600372314453 C60.23699951171875,-67.64600372314453 79.25399780273438,-67.64600372314453 79.25399780273438,-67.64600372314453 C87.61299896240234,-67.64600372314453 93.74299621582031,-66.05799865722656 97.64299774169922,-62.88199996948242 C101.40499877929688,-59.87300109863281 103.28600311279297,-55.13600158691406 103.28600311279297,-48.67100143432617 C103.28600311279297,-42.17900085449219 101.48899841308594,-37.28900146484375 97.89399719238281,-34.000999450683594 C96.13999938964844,-32.356998443603516 93.9520034790039,-31.159000396728516 91.33300018310547,-30.406999588012695 C91.33300018310547,-30.406999588012695 106.96399688720703,-7.251999855041504 106.96399688720703,-7.251999855041504 C106.96399688720703,-7.251999855041504 92.12699890136719,-7.251999855041504 92.12699890136719,-7.251999855041504 C92.12699890136719,-7.251999855041504 78.2509994506836,-29.31999969482422 78.2509994506836,-29.31999969482422z M146.8280029296875,67.64600372314453 C146.8280029296875,67.64600372314453 132.32400512695312,67.64600372314453 132.32400512695312,67.64600372314453 C132.32400512695312,67.64600372314453 105.57499694824219,24.47100067138672 105.57499694824219,24.47100067138672 C105.57499694824219,24.47100067138672 105.57499694824219,67.64600372314453 105.57499694824219,67.64600372314453 C105.57499694824219,67.64600372314453 93.0790023803711,67.64600372314453 93.0790023803711,67.64600372314453 C93.0790023803711,67.64600372314453 93.0790023803711,7.250999927520752 93.0790023803711,7.250999927520752 C93.0790023803711,7.250999927520752 107.41400146484375,7.250999927520752 107.41400146484375,7.250999927520752 C107.41400146484375,7.250999927520752 134.33099365234375,50.17499923706055 134.33099365234375,50.17499923706055 C134.33099365234375,50.17499923706055 134.33099365234375,7.250999927520752 134.33099365234375,7.250999927520752 C134.33099365234375,7.250999927520752 146.8280029296875,7.250999927520752 146.8280029296875,7.250999927520752 C146.8280029296875,7.250999927520752 146.8280029296875,67.64600372314453 146.8280029296875,67.64600372314453z"></path></g><g opacity="1" transform="matrix(1,0,0,1,37.194000244140625,118.10900115966797)"><path fill="rgb(31,55,65)" fill-opacity="1" d=" M-3.76200008392334,-19.14299964904785 C-3.76200008392334,-19.14299964904785 -12.454999923706055,-19.14299964904785 -12.454999923706055,-19.14299964904785 C-12.454999923706055,-19.14299964904785 -12.454999923706055,19.14299964904785 -12.454999923706055,19.14299964904785 C-12.454999923706055,19.14299964904785 -3.76200008392334,19.14299964904785 -3.76200008392334,19.14299964904785 C1.6990000009536743,19.14299964904785 5.767000198364258,17.506000518798828 8.442000389099121,14.232000350952148 C11.116999626159668,10.958999633789062 12.454999923706055,6.214000225067139 12.454999923706055,0.0010000000474974513 C12.454999923706055,-6.2129998207092285 11.116999626159668,-10.956999778747559 8.442000389099121,-14.232000350952148 C5.767000198364258,-17.5049991607666 1.6990000009536743,-19.14299964904785 -3.76200008392334,-19.14299964904785z"></path></g><g opacity="1" transform="matrix(1,0,0,1,240.7469940185547,32.40800094604492)"><path fill="rgb(31,55,65)" fill-opacity="1" d=" M6.520999908447266,-6.5 C4.73799991607666,-8.088000297546387 1.3519999980926514,-8.881999969482422 -3.634999990463257,-8.881999969482422 C-3.634999990463257,-8.881999969482422 -8.944999694824219,-8.881999969482422 -8.944999694824219,-8.881999969482422 C-8.944999694824219,-8.881999969482422 -8.944999694824219,8.881999969482422 -8.944999694824219,8.881999969482422 C-8.944999694824219,8.881999969482422 -3.384999990463257,8.881999969482422 -3.384999990463257,8.881999969482422 C-1.100000023841858,8.881999969482422 0.871999979019165,8.720000267028809 2.5290000438690186,8.399999618530273 C4.186999797821045,8.079999923706055 5.573999881744385,7.4039998054504395 6.688000202178955,6.373000144958496 C8.192999839782715,5.007999897003174 8.944999694824219,2.9040000438690186 8.944999694824219,0.06199999898672104 C8.944999694824219,-2.9189999103546143 8.13700008392334,-5.10699987411499 6.520999908447266,-6.5z"></path></g><g opacity="1" transform="matrix(1,0,0,1,125.00700378417969,43.25400161743164)"><path fill="rgb(31,55,65)" fill-opacity="1" d=" M0.0010000000474974513,19.51799964904785 C5.35099983215332,19.51799964904785 9.751999855041504,17.756000518798828 13.206999778747559,14.232000350952148 C16.66200065612793,10.706999778747559 18.391000747680664,5.948999881744385 18.391000747680664,-0.041999999433755875 C18.391000747680664,-6.004000186920166 16.66200065612793,-10.741000175476074 13.206999778747559,-14.251999855041504 C9.751999855041504,-17.76300048828125 5.35099983215332,-19.51799964904785 0.0010000000474974513,-19.51799964904785 C-5.349999904632568,-19.51799964904785 -9.753000259399414,-17.76300048828125 -13.208000183105469,-14.251999855041504 C-16.663000106811523,-10.741000175476074 -18.391000747680664,-6.004000186920166 -18.391000747680664,-0.041999999433755875 C-18.391000747680664,5.948999881744385 -16.663000106811523,10.706999778747559 -13.208000183105469,14.232000350952148 C-9.753000259399414,17.756000518798828 -5.349999904632568,19.51799964904785 0.0010000000474974513,19.51799964904785z"></path></g></g><g style="display: block;" transform="matrix(2.5598199367523193,0,0,2.5598199367523193,276.5281982421875,349.76971435546875)" opacity="1"><g opacity="1" transform="matrix(1,0,0,1,45.569000244140625,53.86000061035156)"><path fill="rgb(206,209,210)" fill-opacity="1" d=" M-11.654000282287598,-53.479000091552734 C-11.654000282287598,-53.479000091552734 -16.576000213623047,-49.52199935913086 -26.42300033569336,-45.566001892089844 C-26.42300033569336,-45.566001892089844 -32.729000091552734,-44.229000091552734 -35.99300003051758,-36.09299850463867 C-39.25699996948242,-27.957000732421875 -45.784000396728516,-8.677000045776367 -45.5629997253418,-8.621000289916992 C-45.34199905395508,-8.5649995803833 -38.70399856567383,-5.723999977111816 -37.98500061035156,-5.445000171661377 C-37.26599884033203,-5.165999889373779 -28.469999313354492,-2.1019999980926514 -26.479000091552734,-2.492000102996826 C-26.479000091552734,-2.492000102996826 -26.139999389648438,-3.9700000286102295 -25.99799919128418,-4.001999855041504 C-25.856000900268555,-4.033999919891357 -25.871999740600586,-3.4630000591278076 -24.881000518798828,-2.75 C-24.881000518798828,-2.75 -24.49799919128418,-2.181999921798706 -24.607999801635742,-0.07999999821186066 C-24.718000411987305,2.0220000743865967 -24.201000213623047,-0.12600000202655792 -24.718000411987305,3.2690000534057617 C-25.235000610351562,6.664000034332275 -24.7810001373291,9.776000022888184 -23.80900001525879,13.944999694824219 C-23.80900001525879,13.944999694824219 -24.354000091552734,17.590999603271484 -23.70400047302246,21.584999084472656 C-23.70400047302246,21.584999084472656 -25.481000900268555,27.368999481201172 -25.503000259399414,30.381000518798828 C-25.524999618530273,33.393001556396484 -24.895999908447266,36.99399948120117 -24.961000442504883,37.58300018310547 C-25.025999069213867,38.172000885009766 -25.655000686645508,42.73400115966797 -25.632999420166016,44.284000396728516 C-25.611000061035156,45.83399963378906 -25.82699966430664,47.55799865722656 -26.04400062561035,48.125 C-26.04400062561035,48.125 -26.106000900268555,48.819000244140625 -26.08799934387207,49.152000427246094 C-26.06999969482422,49.48500061035156 -26.231000900268555,50.00699996948242 -26.239999771118164,50.1150016784668 C-26.249000549316406,50.222999572753906 -26.525999069213867,51.744998931884766 -26.33799934387207,51.80799865722656 C-26.149999618530273,51.87099838256836 -19.875,53.33000183105469 -11.187000274658203,53.4379997253418 C-2.499000072479248,53.54600143432617 -3.9860000610351562,54.14099884033203 -0.26600000262260437,54.14099884033203 C3.4539999961853027,54.14099884033203 8.440999984741211,53.869998931884766 14.876999855041504,53.38399887084961 C21.312999725341797,52.89799880981445 26.944000244140625,52.62799835205078 26.836999893188477,51.16899871826172 C26.729999542236328,49.709999084472656 26.024999618530273,43.981998443603516 26.163999557495117,41.93600082397461 C26.302000045776367,39.88999938964844 25.610000610351562,38.84299850463867 25.586999893188477,38.611000061035156 C25.56399917602539,38.37799835205078 25.010000228881836,34.56399917602539 25.055999755859375,34.23899841308594 C25.101999282836914,33.91299819946289 25.840999603271484,31.3799991607666 25.77199935913086,29.63599967956543 C25.702999114990234,27.892000198364258 25.749000549316406,24.19499969482422 23.926000595092773,19.42799949645996 C23.926000595092773,19.42799949645996 24.618000030517578,17.753999710083008 24.618000030517578,17.381999969482422 C24.618000030517578,17.010000228881836 25.034000396728516,8.847999572753906 24.826000213623047,7.965000152587891 C24.618000030517578,7.080999851226807 24.525999069213867,6.5 24.57200050354004,6.290999889373779 C24.618000030517578,6.081999778747559 25.77199935913086,4.176000118255615 25.51799964904785,1.8739999532699585 C25.51799964904785,1.8739999532699585 25.14900016784668,0.2460000067949295 24.926000595092773,0.03200000151991844 C24.70199966430664,-0.18199999630451202 25.384000778198242,0.27900001406669617 25.26099967956543,-2.2320001125335693 C25.26099967956543,-2.2320001125335693 25.95400047302246,-3.2119998931884766 26.155000686645508,-3.2230000495910645 C26.356000900268555,-3.2339999675750732 26.312000274658203,-2.5810000896453857 26.423999786376953,-2.490999937057495 C26.535999298095703,-2.4010000228881836 27.0049991607666,-1.7699999809265137 30.31399917602539,-2.63700008392334 C33.62300109863281,-3.503999948501587 39.792999267578125,-5.543000221252441 42.78900146484375,-6.939000129699707 C45.78499984741211,-8.335000038146973 45.51599884033203,-7.613999843597412 45.32600021362305,-8.390999794006348 C45.13600158691406,-9.168000221252441 37.755001068115234,-31.926000595092773 37.63399887084961,-32.494998931884766 C37.51300048828125,-33.06399917602539 37.02899932861328,-34.527000427246094 36.82699966430664,-35.257999420166016 C36.625,-35.98899841308594 34.62200164794922,-41.540000915527344 30.731000900268555,-43.79499816894531 C26.840999603271484,-46.04999923706055 26.464000701904297,-44.974998474121094 14.395000457763672,-51.84400177001953 C14.395000457763672,-51.84400177001953 12.13599967956543,-54.082000732421875 10.83899974822998,-53.479000091552734 C9.541999816894531,-52.875999450683594 -8.48799991607666,-53.29800033569336 -10.03600025177002,-53.71900177001953 C-11.583999633789062,-54.13999938964844 -11.654000282287598,-53.479000091552734 -11.654000282287598,-53.479000091552734z"></path></g></g><g clip-path="url(#__lottie_element_72)" style="display: block;" transform="matrix(2.471909999847412,0,0,2.471909999847412,187.00001525878906,693.561767578125)" opacity="1"><g opacity="1" transform="matrix(1,0,0,1,89,20)"><path fill="rgb(24,199,90)" fill-opacity="1" d=" M-89,-10 C-89,-15.52299976348877 -84.52300262451172,-20 -79,-20 C-79,-20 79,-20 79,-20 C84.52300262451172,-20 89,-15.52299976348877 89,-10 C89,-10 89,10 89,10 C89,15.52299976348877 84.52300262451172,20 79,20 C79,20 -79,20 -79,20 C-84.52300262451172,20 -89,15.52299976348877 -89,10 C-89,10 -89,-10 -89,-10z"></path></g><g opacity="1" transform="matrix(1,0,0,1,89,20)"><path fill="rgb(41,171,81)" fill-opacity="1" d=" M-54,-1 C-54,-2.6570000648498535 -52.65700149536133,-4 -51,-4 C-51,-4 51,-4 51,-4 C52.65700149536133,-4 54,-2.6570000648498535 54,-1 C54,-1 54,1 54,1 C54,2.6570000648498535 52.65700149536133,4 51,4 C51,4 -51,4 -51,4 C-52.65700149536133,4 -54,2.6570000648498535 -54,1 C-54,1 -54,-1 -54,-1z"></path></g></g><g mask="url(#__lottie_element_69)" style="display: block;" transform="matrix(2.471909999847412,0,0,2.471909999847412,187.00001525878906,693.561767578125)" opacity="1"><g opacity="1" transform="matrix(1,0,0,1,89,20)"><path fill="rgb(41,171,81)" fill-opacity="1" d=" M-89,-10 C-89,-15.52299976348877 -84.52300262451172,-20 -79,-20 C-79,-20 79,-20 79,-20 C84.52300262451172,-20 89,-15.52299976348877 89,-10 C89,-10 89,10 89,10 C89,15.52299976348877 84.52300262451172,20 79,20 C79,20 -79,20 -79,20 C-84.52300262451172,20 -89,15.52299976348877 -89,10 C-89,10 -89,-10 -89,-10z"></path></g><g opacity="1" transform="matrix(1,0,0,1,89,20)"><path fill="rgb(24,199,90)" fill-opacity="1" d=" M-54,-1 C-54,-2.6570000648498535 -52.65700149536133,-4 -51,-4 C-51,-4 51,-4 51,-4 C52.65700149536133,-4 54,-2.6570000648498535 54,-1 C54,-1 54,1 54,1 C54,2.6570000648498535 52.65700149536133,4 51,4 C51,4 -51,4 -51,4 C-52.65700149536133,4 -54,2.6570000648498535 -54,1 C-54,1 -54,-1 -54,-1z"></path></g></g><g style="display: block;" transform="matrix(0.3172202408313751,0,0,0.3172202408313751,508.4241027832031,634.5217895507812)" opacity="1"><g opacity="1" transform="matrix(1,0,0,1,159.02699279785156,80.68099975585938)"><path fill="rgb(31,55,65)" fill-opacity="1" d=" M123.23699951171875,-4.948999881744385 C123.23699951171875,-4.948999881744385 108.24400329589844,-27.158000946044922 108.24400329589844,-27.158000946044922 C113.0510025024414,-32.63800048828125 115.48500061035156,-39.86800003051758 115.48500061035156,-48.67100143432617 C115.48500061035156,-61.53099822998047 109.93299865722656,-68.6719970703125 105.28700256347656,-72.38999938964844 C99.12799835205078,-77.40699768066406 90.61100006103516,-79.84600067138672 79.25299835205078,-79.84600067138672 C79.25299835205078,-79.84600067138672 -9.373000144958496,-79.84600067138672 -9.373000144958496,-79.84600067138672 C-9.373000144958496,-79.84600067138672 -9.373000144958496,-73.65499877929688 -9.373000144958496,-73.65499877929688 C-10.352999687194824,-74.3010025024414 -11.361000061035156,-74.90499877929688 -12.392000198364258,-75.45999908447266 C-18.81999969482422,-78.92500305175781 -26.097999572753906,-80.68199920654297 -34.020999908447266,-80.68199920654297 C-37.00699996948242,-80.68199920654297 -40.027000427246094,-80.4010009765625 -43.000999450683594,-79.84600067138672 C-43.000999450683594,-79.84600067138672 -80.39900207519531,-79.84600067138672 -80.39900207519531,-79.84600067138672 C-80.39900207519531,-79.84600067138672 -85.8550033569336,-70.7770004272461 -85.8550033569336,-70.7770004272461 C-85.8550033569336,-70.7770004272461 -91.29199981689453,-79.84600067138672 -91.29199981689453,-79.84600067138672 C-91.29199981689453,-79.84600067138672 -134.16200256347656,-79.84600067138672 -134.16200256347656,-79.84600067138672 C-134.16200256347656,-79.84600067138672 -104.29900360107422,-32.36399841308594 -104.29900360107422,-32.36399841308594 C-104.29900360107422,-32.36399841308594 -104.29900360107422,-4.948999881744385 -104.29900360107422,-4.948999881744385 C-104.29900360107422,-4.948999881744385 -159.02699279785156,-4.948999881744385 -159.02699279785156,-4.948999881744385 C-159.02699279785156,-4.948999881744385 -159.02699279785156,79.84500122070312 -159.02699279785156,79.84500122070312 C-159.02699279785156,79.84500122070312 -124.96900177001953,79.84500122070312 -124.96900177001953,79.84500122070312 C-118.71299743652344,79.84500122070312 -112.96399688720703,78.8270034790039 -107.88099670410156,76.81800079345703 C-105.39800262451172,75.83499908447266 -103.06199645996094,74.61299896240234 -100.90599822998047,73.16799926757812 C-100.90599822998047,73.16799926757812 -100.90599822998047,79.84500122070312 -100.90599822998047,79.84500122070312 C-100.90599822998047,79.84500122070312 -41.483001708984375,79.84500122070312 -41.483001708984375,79.84500122070312 C-41.483001708984375,79.84500122070312 -41.483001708984375,77.7020034790039 -41.483001708984375,77.7020034790039 C-36.50899887084961,79.68000030517578 -30.957000732421875,80.68099975585938 -24.94300079345703,80.68099975585938 C-18.363000869750977,80.68099975585938 -12.447999954223633,79.45800018310547 -7.317999839782715,77.04000091552734 C-7.317999839782715,77.04000091552734 -7.317999839782715,79.84500122070312 -7.317999839782715,79.84500122070312 C-7.317999839782715,79.84500122070312 29.618999481201172,79.84500122070312 29.618999481201172,79.84500122070312 C29.618999481201172,79.84500122070312 29.618999481201172,72.97799682617188 29.618999481201172,72.97799682617188 C32.28200149536133,74.84700012207031 35.20000076293945,76.41100311279297 38.32899856567383,77.64099884033203 C43.46099853515625,79.65799713134766 49.01900100708008,80.68099975585938 54.85100173950195,80.68099975585938 C57.893001556396484,80.68099975585938 60.82899856567383,80.4000015258789 63.577999114990234,79.84500122070312 C63.577999114990234,79.84500122070312 117.77400207519531,79.84500122070312 117.77400207519531,79.84500122070312 C117.77400207519531,79.84500122070312 117.77400207519531,67.32599639892578 117.77400207519531,67.32599639892578 C117.77400207519531,67.32599639892578 125.53099822998047,79.84500122070312 125.53099822998047,79.84500122070312 C125.53099822998047,79.84500122070312 159.02699279785156,79.84500122070312 159.02699279785156,79.84500122070312 C159.02699279785156,79.84500122070312 159.02699279785156,-4.948999881744385 159.02699279785156,-4.948999881744385 C159.02699279785156,-4.948999881744385 123.23699951171875,-4.948999881744385 123.23699951171875,-4.948999881744385z M-49.88100051879883,-64.72100067138672 C-45.2140007019043,-67.22899627685547 -39.926998138427734,-68.48200225830078 -34.02000045776367,-68.48200225830078 C-28.11199951171875,-68.48200225830078 -22.83300018310547,-67.22899627685547 -18.18000030517578,-64.72100067138672 C-13.526000022888184,-62.2130012512207 -9.862000465393066,-58.597999572753906 -7.188000202178955,-53.875 C-4.513000011444092,-49.152000427246094 -3.174999952316284,-43.683998107910156 -3.174999952316284,-37.470001220703125 C-3.174999952316284,-31.28499984741211 -4.513000011444092,-25.822999954223633 -7.188000202178955,-21.086000442504883 C-9.862000465393066,-16.350000381469727 -13.532999992370605,-12.720000267028809 -18.200000762939453,-10.199000358581543 C-22.867000579833984,-7.677000045776367 -28.141000747680664,-6.415999889373779 -34.02000045776367,-6.415999889373779 C-39.926998138427734,-6.415999889373779 -45.2140007019043,-7.677000045776367 -49.88100051879883,-10.199000358581543 C-54.54899978637695,-12.720000267028809 -58.220001220703125,-16.350000381469727 -60.89500045776367,-21.086000442504883 C-63.569000244140625,-25.822999954223633 -64.90699768066406,-31.28499984741211 -64.90699768066406,-37.470001220703125 C-64.90699768066406,-43.683998107910156 -63.569000244140625,-49.152000427246094 -60.89500045776367,-53.875 C-58.220001220703125,-58.597999572753906 -54.54899978637695,-62.2130012512207 -49.88100051879883,-64.72100067138672z M-97.98899841308594,49.79899978637695 C-99.2020034790039,53.47700119018555 -100.98500061035156,56.645999908447266 -103.33999633789062,59.30699920654297 C-105.69400024414062,61.96799850463867 -108.7030029296875,64.02300262451172 -112.36699676513672,65.47200012207031 C-116.03099822998047,66.9209976196289 -120.23200225830078,67.64600372314453 -124.96900177001953,67.64600372314453 C-124.96900177001953,67.64600372314453 -146.8280029296875,67.64600372314453 -146.8280029296875,67.64600372314453 C-146.8280029296875,67.64600372314453 -146.8280029296875,7.250999927520752 -146.8280029296875,7.250999927520752 C-146.8280029296875,7.250999927520752 -124.96900177001953,7.250999927520752 -124.96900177001953,7.250999927520752 C-120.23200225830078,7.250999927520752 -116.03099822998047,7.974999904632568 -112.36699676513672,9.423999786376953 C-108.7030029296875,10.87399959564209 -105.69400024414062,12.928000450134277 -103.33999633789062,15.58899974822998 C-100.98500061035156,18.25 -99.2020034790039,21.41900062561035 -97.98899841308594,25.097999572753906 C-96.7770004272461,28.775999069213867 -96.1719970703125,32.8849983215332 -96.1719970703125,37.426998138427734 C-96.1719970703125,41.99800109863281 -96.7770004272461,46.12099838256836 -97.98899841308594,49.79899978637695z M-112.0770034790039,-67.64600372314453 C-112.0770034790039,-67.64600372314453 -98.20099639892578,-67.64600372314453 -98.20099639892578,-67.64600372314453 C-98.20099639892578,-67.64600372314453 -85.87100219726562,-47.08300018310547 -85.87100219726562,-47.08300018310547 C-85.87100219726562,-47.08300018310547 -73.5,-67.64600372314453 -73.5,-67.64600372314453 C-73.5,-67.64600372314453 -59.66600036621094,-67.64600372314453 -59.66600036621094,-67.64600372314453 C-59.66600036621094,-67.64600372314453 -79.51899719238281,-36.17399978637695 -79.51899719238281,-36.17399978637695 C-79.51899719238281,-36.17399978637695 -79.51899719238281,-7.251999855041504 -79.51899719238281,-7.251999855041504 C-79.51899719238281,-7.251999855041504 -92.0989990234375,-7.251999855041504 -92.0989990234375,-7.251999855041504 C-92.0989990234375,-7.251999855041504 -92.0989990234375,-35.88199996948242 -92.0989990234375,-35.88199996948242 C-92.0989990234375,-35.88199996948242 -112.0770034790039,-67.64600372314453 -112.0770034790039,-67.64600372314453z M-53.68199920654297,18.28499984741211 C-53.68199920654297,18.28499984741211 -76.08399963378906,18.28499984741211 -76.08399963378906,18.28499984741211 C-76.08399963378906,18.28499984741211 -76.08399963378906,31.993999481201172 -76.08399963378906,31.993999481201172 C-76.08399963378906,31.993999481201172 -56.231998443603516,31.993999481201172 -56.231998443603516,31.993999481201172 C-56.231998443603516,31.993999481201172 -56.231998443603516,42.90299987792969 -56.231998443603516,42.90299987792969 C-56.231998443603516,42.90299987792969 -76.08399963378906,42.90299987792969 -76.08399963378906,42.90299987792969 C-76.08399963378906,42.90299987792969 -76.08399963378906,56.56999969482422 -76.08399963378906,56.56999969482422 C-76.08399963378906,56.56999969482422 -53.68199920654297,56.56999969482422 -53.68199920654297,56.56999969482422 C-53.68199920654297,56.56999969482422 -53.68199920654297,67.64600372314453 -53.68199920654297,67.64600372314453 C-53.68199920654297,67.64600372314453 -88.70700073242188,67.64600372314453 -88.70700073242188,67.64600372314453 C-88.70700073242188,67.64600372314453 -88.70700073242188,7.250999927520752 -88.70700073242188,7.250999927520752 C-88.70700073242188,7.250999927520752 -53.68199920654297,7.250999927520752 -53.68199920654297,7.250999927520752 C-53.68199920654297,7.250999927520752 -53.68199920654297,18.28499984741211 -53.68199920654297,18.28499984741211z M-8.642999649047852,63.67499923706055 C-12.795000076293945,66.87899780273438 -18.229000091552734,68.48200225830078 -24.94300079345703,68.48200225830078 C-31.60300064086914,68.48200225830078 -37.202999114990234,66.94200134277344 -41.744998931884766,63.862998962402344 C-46.2869987487793,60.78499984741211 -49.00400161743164,56.47200012207031 -49.895999908447266,50.926998138427734 C-49.895999908447266,50.926998138427734 -37.481998443603516,48.084999084472656 -37.481998443603516,48.084999084472656 C-36.61800003051758,51.48500061035156 -35.08599853515625,54.027000427246094 -32.8849983215332,55.7130012512207 C-30.68400001525879,57.39899826049805 -27.966999053955078,58.242000579833984 -24.733999252319336,58.242000579833984 C-21.920000076293945,58.242000579833984 -19.649999618530273,57.6349983215332 -17.922000885009766,56.42300033569336 C-16.194000244140625,55.21099853515625 -15.343999862670898,53.435001373291016 -15.371999740600586,51.09400177001953 C-15.371999740600586,50.007999420166016 -15.616000175476074,49.01900100708008 -16.104000091552734,48.12699890136719 C-16.590999603271484,47.236000061035156 -17.211000442504883,46.483001708984375 -17.964000701904297,45.87099838256836 C-18.715999603271484,45.25699996948242 -19.691999435424805,44.67900085449219 -20.888999938964844,44.1349983215332 C-22.086999893188477,43.59199905395508 -23.257999420166016,43.125 -24.400999069213867,42.736000061035156 C-25.54199981689453,42.345001220703125 -26.893999099731445,41.91400146484375 -28.45400047302246,41.439998626708984 C-28.900999069213867,41.29999923706055 -29.233999252319336,41.202999114990234 -29.457000732421875,41.14699935913086 C-31.04599952697754,40.645999908447266 -32.32699966430664,40.22800064086914 -33.303001403808594,39.893001556396484 C-34.277000427246094,39.558998107910156 -35.48899841308594,39.09199905395508 -36.93899917602539,38.49399948120117 C-38.38800048828125,37.89400100708008 -39.55799865722656,37.308998107910156 -40.44900131225586,36.737998962402344 C-41.340999603271484,36.16699981689453 -42.303001403808594,35.435001373291016 -43.33300018310547,34.542999267578125 C-44.36399841308594,33.652000427246094 -45.172000885009766,32.71799850463867 -45.757999420166016,31.743999481201172 C-46.34299850463867,30.76799964904785 -46.83000183105469,29.604999542236328 -47.22100067138672,28.253000259399414 C-47.61000061035156,26.902000427246094 -47.805999755859375,25.445999145507812 -47.805999755859375,23.885000228881836 C-47.805999755859375,20.26300048828125 -46.8650016784668,17.121999740600586 -44.98400115966797,14.460000038146973 C-43.104000091552734,11.800000190734863 -40.56800079345703,9.793000221252441 -37.37699890136719,8.442000389099121 C-34.1879997253418,7.091000080108643 -30.558000564575195,6.415999889373779 -26.48900032043457,6.415999889373779 C-23.73200035095215,6.415999889373779 -21.106000900268555,6.708000183105469 -18.611000061035156,7.291999816894531 C-16.117000579833984,7.877999782562256 -13.770000457763672,8.777000427246094 -11.567999839782715,9.98900032043457 C-9.366999626159668,11.201000213623047 -7.493000030517578,12.859000205993652 -5.947000026702881,14.961999893188477 C-4.401000022888184,17.06599998474121 -3.3350000381469727,19.51099967956543 -2.75,22.297000885009766 C-2.75,22.297000885009766 -14.118000030517578,25.097999572753906 -14.118000030517578,25.097999572753906 C-15.930000305175781,19.4689998626709 -19.80299949645996,16.655000686645508 -25.73699951171875,16.655000686645508 C-28.44099998474121,16.655000686645508 -30.676000595092773,17.232999801635742 -32.44499969482422,18.388999938964844 C-34.21500015258789,19.54599952697754 -35.099998474121094,21.225000381469727 -35.099998474121094,23.426000595092773 C-35.099998474121094,24.344999313354492 -34.869998931884766,25.180999755859375 -34.40999984741211,25.93400001525879 C-33.95000076293945,26.68600082397461 -33.45600128173828,27.298999786376953 -32.92599868774414,27.773000717163086 C-32.39699935913086,28.246999740600586 -31.5049991607666,28.74799919128418 -30.250999450683594,29.277000427246094 C-28.996999740600586,29.80699920654297 -28.000999450683594,30.19700050354004 -27.26300048828125,30.447999954223633 C-26.524999618530273,30.698999404907227 -25.29199981689453,31.075000762939453 -23.565000534057617,31.576000213623047 C-23.006999969482422,31.743999481201172 -22.589000701904297,31.868999481201172 -22.31100082397461,31.952999114990234 C-20.638999938964844,32.45399856567383 -19.29400062561035,32.87200164794922 -18.277000427246094,33.207000732421875 C-17.260000228881836,33.54100036621094 -15.970999717712402,34.02799987792969 -14.41100025177002,34.667999267578125 C-12.85099983215332,35.310001373291016 -11.583000183105469,35.93000030517578 -10.607999801635742,36.52899932861328 C-9.631999969482422,37.12699890136719 -8.567000389099121,37.90800094604492 -7.409999847412109,38.869998931884766 C-6.254000186920166,39.83100128173828 -5.355999946594238,40.84000015258789 -4.714000225067139,41.900001525878906 C-4.072999954223633,42.95899963378906 -3.5299999713897705,44.21900177001953 -3.0840001106262207,45.68199920654297 C-2.6389999389648438,47.14500045776367 -2.4149999618530273,48.72600173950195 -2.4149999618530273,50.42599868774414 C-2.4149999618530273,56.05400085449219 -4.491000175476074,60.470001220703125 -8.642999649047852,63.67499923706055z M2.8269999027252197,-28.399999618530273 C2.8269999027252197,-28.399999618530273 2.8269999027252197,-67.64600372314453 2.8269999027252197,-67.64600372314453 C2.8269999027252197,-67.64600372314453 15.366000175476074,-67.64600372314453 15.366000175476074,-67.64600372314453 C15.366000175476074,-67.64600372314453 15.366000175476074,-30.11400032043457 15.366000175476074,-30.11400032043457 C15.366000175476074,-25.76799964904785 16.375999450683594,-22.57699966430664 18.395999908447266,-20.542999267578125 C20.416000366210938,-18.509000778198242 23.097999572753906,-17.492000579833984 26.44099998474121,-17.492000579833984 C29.78499984741211,-17.492000579833984 32.48099899291992,-18.516000747680664 34.52899932861328,-20.56399917602539 C36.57699966430664,-22.61199951171875 37.60100173950195,-25.795000076293945 37.60100173950195,-30.11400032043457 C37.60100173950195,-30.11400032043457 37.60100173950195,-67.64600372314453 37.60100173950195,-67.64600372314453 C37.60100173950195,-67.64600372314453 50.13999938964844,-67.64600372314453 50.13999938964844,-67.64600372314453 C50.13999938964844,-67.64600372314453 50.13999938964844,-28.399999618530273 50.13999938964844,-28.399999618530273 C50.13999938964844,-24.69499969482422 49.534000396728516,-21.42099952697754 48.32099914550781,-18.57900047302246 C47.10900115966797,-15.736000061035156 45.42399978637695,-13.437999725341797 43.26499938964844,-11.682000160217285 C41.10499954223633,-9.927000045776367 38.611000061035156,-8.609999656677246 35.78300094604492,-7.732999801635742 C32.95500183105469,-6.855000019073486 29.840999603271484,-6.415999889373779 26.44099998474121,-6.415999889373779 C23.06999969482422,-6.415999889373779 19.97100067138672,-6.855000019073486 17.142000198364258,-7.732999801635742 C14.314000129699707,-8.609999656677246 11.82699966430664,-9.927000045776367 9.682000160217285,-11.682000160217285 C7.535999774932861,-13.437999725341797 5.85699987411499,-15.736000061035156 4.644999980926514,-18.57900047302246 C3.433000087738037,-21.42099952697754 2.8269999027252197,-24.69499969482422 2.8269999027252197,-28.399999618530273z M17.420000076293945,67.64600372314453 C17.420000076293945,67.64600372314453 4.88100004196167,67.64600372314453 4.88100004196167,67.64600372314453 C4.88100004196167,67.64600372314453 4.88100004196167,7.250999927520752 4.88100004196167,7.250999927520752 C4.88100004196167,7.250999927520752 17.420000076293945,7.250999927520752 17.420000076293945,7.250999927520752 C17.420000076293945,7.250999927520752 17.420000076293945,67.64600372314453 17.420000076293945,67.64600372314453z M84.36000061035156,67.64600372314453 C84.36000061035156,67.64600372314453 74.49600219726562,67.64600372314453 74.49600219726562,67.64600372314453 C74.49600219726562,67.64600372314453 74.49600219726562,59.2869987487793 74.49600219726562,59.2869987487793 C70.34500122070312,65.41699981689453 63.797000885009766,68.48200225830078 54.85200119018555,68.48200225830078 C50.53300094604492,68.48200225830078 46.513999938964844,67.75 42.79399871826172,66.28800201416016 C39.07400131225586,64.82499694824219 35.869998931884766,62.76900100708008 33.18199920654297,60.12300109863281 C30.492000579833984,57.474998474121094 28.388999938964844,54.21500015258789 26.8700008392334,50.34199905395508 C25.35099983215332,46.46900177001953 24.591999053955078,42.220001220703125 24.591999053955078,37.59400177001953 C24.591999053955078,32.91400146484375 25.371999740600586,28.615999221801758 26.93199920654297,24.701000213623047 C28.493000030517578,20.785999298095703 30.638999938964844,17.49799919128418 33.36899948120117,14.836999893188477 C36.0989990234375,12.175999641418457 39.367000579833984,10.107000350952148 43.16999816894531,8.630000114440918 C46.9739990234375,7.1539998054504395 51.07699966430664,6.415999889373779 55.479000091552734,6.415999889373779 C61.303001403808594,6.415999889373779 66.53399658203125,7.6479997634887695 71.17400360107422,10.11400032043457 C75.81199645996094,12.579999923706055 79.44200134277344,16.08300018310547 82.06099700927734,20.625 C82.06099700927734,20.625 71.31900024414062,26.39299964904785 71.31900024414062,26.39299964904785 C69.64700317382812,23.384000778198242 67.44599914550781,21.121000289916992 64.71600341796875,19.601999282836914 C61.98500061035156,18.08300018310547 58.90599822998047,17.323999404907227 55.479000091552734,17.323999404907227 C50.10100173950195,17.323999404907227 45.70600128173828,19.093000411987305 42.292999267578125,22.631000518798828 C38.87900161743164,26.170000076293945 37.17300033569336,31.059999465942383 37.17300033569336,37.301998138427734 C37.17300033569336,43.45899963378906 38.87200164794922,48.37699890136719 42.270999908447266,52.055999755859375 C45.67100143432617,55.73400115966797 50.22600173950195,57.573001861572266 55.9379997253418,57.573001861572266 C58.61399841308594,57.573001861572266 61.064998626708984,57.14099884033203 63.29499816894531,56.277000427246094 C65.52400207519531,55.41400146484375 67.4739990234375,54.01300048828125 69.14600372314453,52.07699966430664 C70.81800079345703,50.13999938964844 71.93199920654297,47.75 72.48999786376953,44.909000396728516 C72.48999786376953,44.909000396728516 55.97999954223633,44.909000396728516 55.97999954223633,44.909000396728516 C55.97999954223633,44.909000396728516 55.97999954223633,34.83599853515625 55.97999954223633,34.83599853515625 C55.97999954223633,34.83599853515625 84.36000061035156,34.83599853515625 84.36000061035156,34.83599853515625 C84.36000061035156,34.83599853515625 84.36000061035156,67.64600372314453 84.36000061035156,67.64600372314453z M78.2509994506836,-29.31999969482422 C78.2509994506836,-29.31999969482422 72.7750015258789,-29.31999969482422 72.7750015258789,-29.31999969482422 C72.7750015258789,-29.31999969482422 72.7750015258789,-7.251999855041504 72.7750015258789,-7.251999855041504 C72.7750015258789,-7.251999855041504 60.23699951171875,-7.251999855041504 60.23699951171875,-7.251999855041504 C60.23699951171875,-7.251999855041504 60.23699951171875,-67.64600372314453 60.23699951171875,-67.64600372314453 C60.23699951171875,-67.64600372314453 79.25399780273438,-67.64600372314453 79.25399780273438,-67.64600372314453 C87.61299896240234,-67.64600372314453 93.74299621582031,-66.05799865722656 97.64299774169922,-62.88199996948242 C101.40499877929688,-59.87300109863281 103.28600311279297,-55.13600158691406 103.28600311279297,-48.67100143432617 C103.28600311279297,-42.17900085449219 101.48899841308594,-37.28900146484375 97.89399719238281,-34.000999450683594 C96.13999938964844,-32.356998443603516 93.9520034790039,-31.159000396728516 91.33300018310547,-30.406999588012695 C91.33300018310547,-30.406999588012695 106.96399688720703,-7.251999855041504 106.96399688720703,-7.251999855041504 C106.96399688720703,-7.251999855041504 92.12699890136719,-7.251999855041504 92.12699890136719,-7.251999855041504 C92.12699890136719,-7.251999855041504 78.2509994506836,-29.31999969482422 78.2509994506836,-29.31999969482422z M146.8280029296875,67.64600372314453 C146.8280029296875,67.64600372314453 132.32400512695312,67.64600372314453 132.32400512695312,67.64600372314453 C132.32400512695312,67.64600372314453 105.57499694824219,24.47100067138672 105.57499694824219,24.47100067138672 C105.57499694824219,24.47100067138672 105.57499694824219,67.64600372314453 105.57499694824219,67.64600372314453 C105.57499694824219,67.64600372314453 93.0790023803711,67.64600372314453 93.0790023803711,67.64600372314453 C93.0790023803711,67.64600372314453 93.0790023803711,7.250999927520752 93.0790023803711,7.250999927520752 C93.0790023803711,7.250999927520752 107.41400146484375,7.250999927520752 107.41400146484375,7.250999927520752 C107.41400146484375,7.250999927520752 134.33099365234375,50.17499923706055 134.33099365234375,50.17499923706055 C134.33099365234375,50.17499923706055 134.33099365234375,7.250999927520752 134.33099365234375,7.250999927520752 C134.33099365234375,7.250999927520752 146.8280029296875,7.250999927520752 146.8280029296875,7.250999927520752 C146.8280029296875,7.250999927520752 146.8280029296875,67.64600372314453 146.8280029296875,67.64600372314453z"></path></g><g opacity="1" transform="matrix(1,0,0,1,37.194000244140625,118.10900115966797)"><path fill="rgb(31,55,65)" fill-opacity="1" d=" M-3.76200008392334,-19.14299964904785 C-3.76200008392334,-19.14299964904785 -12.454999923706055,-19.14299964904785 -12.454999923706055,-19.14299964904785 C-12.454999923706055,-19.14299964904785 -12.454999923706055,19.14299964904785 -12.454999923706055,19.14299964904785 C-12.454999923706055,19.14299964904785 -3.76200008392334,19.14299964904785 -3.76200008392334,19.14299964904785 C1.6990000009536743,19.14299964904785 5.767000198364258,17.506000518798828 8.442000389099121,14.232000350952148 C11.116999626159668,10.958999633789062 12.454999923706055,6.214000225067139 12.454999923706055,0.0010000000474974513 C12.454999923706055,-6.2129998207092285 11.116999626159668,-10.956999778747559 8.442000389099121,-14.232000350952148 C5.767000198364258,-17.5049991607666 1.6990000009536743,-19.14299964904785 -3.76200008392334,-19.14299964904785z"></path></g><g opacity="1" transform="matrix(1,0,0,1,240.7469940185547,32.40800094604492)"><path fill="rgb(31,55,65)" fill-opacity="1" d=" M6.520999908447266,-6.5 C4.73799991607666,-8.088000297546387 1.3519999980926514,-8.881999969482422 -3.634999990463257,-8.881999969482422 C-3.634999990463257,-8.881999969482422 -8.944999694824219,-8.881999969482422 -8.944999694824219,-8.881999969482422 C-8.944999694824219,-8.881999969482422 -8.944999694824219,8.881999969482422 -8.944999694824219,8.881999969482422 C-8.944999694824219,8.881999969482422 -3.384999990463257,8.881999969482422 -3.384999990463257,8.881999969482422 C-1.100000023841858,8.881999969482422 0.871999979019165,8.720000267028809 2.5290000438690186,8.399999618530273 C4.186999797821045,8.079999923706055 5.573999881744385,7.4039998054504395 6.688000202178955,6.373000144958496 C8.192999839782715,5.007999897003174 8.944999694824219,2.9040000438690186 8.944999694824219,0.06199999898672104 C8.944999694824219,-2.9189999103546143 8.13700008392334,-5.10699987411499 6.520999908447266,-6.5z"></path></g><g opacity="1" transform="matrix(1,0,0,1,125.00700378417969,43.25400161743164)"><path fill="rgb(31,55,65)" fill-opacity="1" d=" M0.0010000000474974513,19.51799964904785 C5.35099983215332,19.51799964904785 9.751999855041504,17.756000518798828 13.206999778747559,14.232000350952148 C16.66200065612793,10.706999778747559 18.391000747680664,5.948999881744385 18.391000747680664,-0.041999999433755875 C18.391000747680664,-6.004000186920166 16.66200065612793,-10.741000175476074 13.206999778747559,-14.251999855041504 C9.751999855041504,-17.76300048828125 5.35099983215332,-19.51799964904785 0.0010000000474974513,-19.51799964904785 C-5.349999904632568,-19.51799964904785 -9.753000259399414,-17.76300048828125 -13.208000183105469,-14.251999855041504 C-16.663000106811523,-10.741000175476074 -18.391000747680664,-6.004000186920166 -18.391000747680664,-0.041999999433755875 C-18.391000747680664,5.948999881744385 -16.663000106811523,10.706999778747559 -13.208000183105469,14.232000350952148 C-9.753000259399414,17.756000518798828 -5.349999904632568,19.51799964904785 0.0010000000474974513,19.51799964904785z"></path></g></g><g style="display: block;" transform="matrix(2.471909999847412,0,0,2.471909999847412,574.9249877929688,683.6206665039062)" opacity="1"><g opacity="1" transform="matrix(1,0,0,1,5.822999954223633,5.230000019073486)"><path fill="rgb(239,91,109)" fill-opacity="1" d=" M-3.696000099182129,-4.7179999351501465 C-3.696000099182129,-4.7179999351501465 -2.621000051498413,3.5829999446868896 -2.621000051498413,3.5829999446868896 C-2.6050000190734863,3.7090001106262207 -2.5269999504089355,3.818000078201294 -2.4130001068115234,3.874000072479248 C-2.2990000247955322,3.930000066757202 -2.1659998893737793,3.924999952316284 -2.055999994277954,3.861999988555908 C-2.055999994277954,3.861999988555908 0.07599999755620956,2.631999969482422 0.07599999755620956,2.631999969482422 C0.07599999755620956,2.631999969482422 1.4010000228881836,4.927999973297119 1.4010000228881836,4.927999973297119 C1.50600004196167,5.109000205993652 1.7380000352859497,5.170000076293945 1.9190000295639038,5.065999984741211 C1.9190000295639038,5.065999984741211 2.5739998817443848,4.686999797821045 2.5739998817443848,4.686999797821045 C2.6610000133514404,4.63700008392334 2.7249999046325684,4.553999900817871 2.750999927520752,4.456999778747559 C2.7769999504089355,4.360000133514404 2.763000011444092,4.256999969482422 2.7130000591278076,4.170000076293945 C2.7130000591278076,4.170000076293945 1.3869999647140503,1.8739999532699585 1.3869999647140503,1.8739999532699585 C1.3869999647140503,1.8739999532699585 3.5190000534057617,0.6430000066757202 3.5190000534057617,0.6430000066757202 C3.628999948501587,0.5799999833106995 3.700000047683716,0.4659999907016754 3.7079999446868896,0.3400000035762787 C3.7160000801086426,0.21400000154972076 3.6610000133514404,0.09099999815225601 3.559999942779541,0.014000000432133675 C3.559999942779541,0.014000000432133675 -3.0910000801086426,-5.066999912261963 -3.0910000801086426,-5.066999912261963 C-3.2119998931884766,-5.159999847412109 -3.378000020980835,-5.170000076293945 -3.509999990463257,-5.093999862670898 C-3.6419999599456787,-5.01800012588501 -3.7160000801086426,-4.869999885559082 -3.696000099182129,-4.7179999351501465z"></path></g></g><g style="display: none;" transform="matrix(2.471909999847412,0,0,2.471909999847412,702.4044799804688,848.9044799804688)" opacity="1"><g opacity="1" transform="matrix(1,0,0,1,5.822999954223633,5.230000019073486)"><path fill="rgb(239,91,109)" fill-opacity="1" d=" M-3.696000099182129,-4.7179999351501465 C-3.696000099182129,-4.7179999351501465 -2.621000051498413,3.5829999446868896 -2.621000051498413,3.5829999446868896 C-2.6050000190734863,3.7090001106262207 -2.5269999504089355,3.818000078201294 -2.4130001068115234,3.874000072479248 C-2.2990000247955322,3.930000066757202 -2.1659998893737793,3.924999952316284 -2.055999994277954,3.861999988555908 C-2.055999994277954,3.861999988555908 0.07599999755620956,2.631999969482422 0.07599999755620956,2.631999969482422 C0.07599999755620956,2.631999969482422 1.4010000228881836,4.927999973297119 1.4010000228881836,4.927999973297119 C1.50600004196167,5.109000205993652 1.7380000352859497,5.170000076293945 1.9190000295639038,5.065999984741211 C1.9190000295639038,5.065999984741211 2.5739998817443848,4.686999797821045 2.5739998817443848,4.686999797821045 C2.6610000133514404,4.63700008392334 2.7249999046325684,4.553999900817871 2.750999927520752,4.456999778747559 C2.7769999504089355,4.360000133514404 2.763000011444092,4.256999969482422 2.7130000591278076,4.170000076293945 C2.7130000591278076,4.170000076293945 1.3869999647140503,1.8739999532699585 1.3869999647140503,1.8739999532699585 C1.3869999647140503,1.8739999532699585 3.5190000534057617,0.6430000066757202 3.5190000534057617,0.6430000066757202 C3.628999948501587,0.5799999833106995 3.700000047683716,0.4659999907016754 3.7079999446868896,0.3400000035762787 C3.7160000801086426,0.21400000154972076 3.6610000133514404,0.09099999815225601 3.559999942779541,0.014000000432133675 C3.559999942779541,0.014000000432133675 -3.0910000801086426,-5.066999912261963 -3.0910000801086426,-5.066999912261963 C-3.2119998931884766,-5.159999847412109 -3.378000020980835,-5.170000076293945 -3.509999990463257,-5.093999862670898 C-3.6419999599456787,-5.01800012588501 -3.7160000801086426,-4.869999885559082 -3.696000099182129,-4.7179999351501465z"></path></g></g><g style="display: block;" transform="matrix(1,0,0,1,400,500)" opacity="0.04"><g opacity="1" transform="matrix(1,0,0,1,-5.474999904632568,-55.310001373291016)"><path stroke-linecap="butt" stroke-linejoin="miter" fill-opacity="0" stroke-miterlimit="4" stroke-dasharray=" 10" stroke-dashoffset="0" stroke="rgb(124,124,124)" stroke-opacity="1" stroke-width="1" d=" M44.525001525878906,-44.689998626708984 C44.525001525878906,-44.689998626708984 44.525001525878906,44.689998626708984 44.525001525878906,44.689998626708984 C44.525001525878906,44.689998626708984 -44.525001525878906,44.689998626708984 -44.525001525878906,44.689998626708984 C-44.525001525878906,44.689998626708984 -44.525001525878906,-44.689998626708984 -44.525001525878906,-44.689998626708984 C-44.525001525878906,-44.689998626708984 44.525001525878906,-44.689998626708984 44.525001525878906,-44.689998626708984z"></path></g></g><g style="display: block;" transform="matrix(2.6296300888061523,0,0,2.6296300888061523,186.99996948242188,205.92591857910156)" opacity="1"><g opacity="1" transform="matrix(1,0,0,1,25.118999481201172,10.059000015258789)"><path fill="rgb(30,50,56)" fill-opacity="1" d=" M23.9060001373291,2.065999984741211 C23.9060001373291,2.065999984741211 23.9060001373291,3.6019999980926514 23.9060001373291,3.6019999980926514 C23.9060001373291,3.6019999980926514 25.09000015258789,3.6019999980926514 25.09000015258789,3.6019999980926514 C25.09000015258789,3.6019999980926514 25.09000015258789,4.439000129699707 25.09000015258789,4.439000129699707 C25.09000015258789,4.439000129699707 23.9060001373291,4.439000129699707 23.9060001373291,4.439000129699707 C23.9060001373291,4.439000129699707 23.9060001373291,8.371000289916992 23.9060001373291,8.371000289916992 C23.9060001373291,8.625 23.958999633789062,8.815999984741211 24.06399917602539,8.944999694824219 C24.16900062561035,9.069999694824219 24.350000381469727,9.133000373840332 24.604000091552734,9.133000373840332 C24.729000091552734,9.133000373840332 24.899999618530273,9.109000205993652 25.118999481201172,9.062000274658203 C25.118999481201172,9.062000274658203 25.118999481201172,9.940999984741211 25.118999481201172,9.940999984741211 C24.833999633789062,10.019000053405762 24.55699920654297,10.059000015258789 24.28700065612793,10.059000015258789 C23.80299949645996,10.059000015258789 23.437000274658203,9.911999702453613 23.19099998474121,9.619000434875488 C22.94499969482422,9.326000213623047 22.82200050354004,8.90999984741211 22.82200050354004,8.371000289916992 C22.82200050354004,8.371000289916992 22.82200050354004,4.439000129699707 22.82200050354004,4.439000129699707 C22.82200050354004,4.439000129699707 21.667999267578125,4.439000129699707 21.667999267578125,4.439000129699707 C21.667999267578125,4.439000129699707 21.667999267578125,3.6019999980926514 21.667999267578125,3.6019999980926514 C21.667999267578125,3.6019999980926514 22.82200050354004,3.6019999980926514 22.82200050354004,3.6019999980926514 C22.82200050354004,3.6019999980926514 22.82200050354004,2.065999984741211 22.82200050354004,2.065999984741211 C22.82200050354004,2.065999984741211 23.9060001373291,2.065999984741211 23.9060001373291,2.065999984741211z M19.523000717163086,1.9199999570846558 C19.523000717163086,1.74399995803833 19.57699966430664,1.5959999561309814 19.68199920654297,1.475000023841858 C19.791000366210938,1.3539999723434448 19.951000213623047,1.2929999828338623 20.16200065612793,1.2929999828338623 C20.37299919128418,1.2929999828338623 20.534000396728516,1.3539999723434448 20.64299964904785,1.475000023841858 C20.75200080871582,1.5959999561309814 20.80699920654297,1.74399995803833 20.80699920654297,1.9199999570846558 C20.80699920654297,2.0959999561309814 20.75200080871582,2.242000102996826 20.64299964904785,2.3589999675750732 C20.534000396728516,2.4760000705718994 20.37299919128418,2.5350000858306885 20.16200065612793,2.5350000858306885 C19.951000213623047,2.5350000858306885 19.791000366210938,2.4760000705718994 19.68199920654297,2.3589999675750732 C19.57699966430664,2.242000102996826 19.523000717163086,2.0959999561309814 19.523000717163086,1.9199999570846558z M20.69499969482422,9.940999984741211 C20.69499969482422,9.940999984741211 19.611000061035156,9.940999984741211 19.611000061035156,9.940999984741211 C19.611000061035156,9.940999984741211 19.611000061035156,3.6019999980926514 19.611000061035156,3.6019999980926514 C19.611000061035156,3.6019999980926514 20.69499969482422,3.6019999980926514 20.69499969482422,3.6019999980926514 C20.69499969482422,3.6019999980926514 20.69499969482422,9.940999984741211 20.69499969482422,9.940999984741211z M13.564000129699707,6.8420000076293945 C13.564000129699707,7.560999870300293 13.713000297546387,8.123000144958496 14.010000228881836,8.529000282287598 C14.307000160217285,8.9350004196167 14.717000007629395,9.138999938964844 15.239999771118164,9.138999938964844 C15.928000450134277,9.138999938964844 16.43000030517578,8.829999923706055 16.746000289916992,8.213000297546387 C16.746000289916992,8.213000297546387 16.746000289916992,5.301000118255615 16.746000289916992,5.301000118255615 C16.422000885009766,4.703000068664551 15.923999786376953,4.4039998054504395 15.251999855041504,4.4039998054504395 C14.720999717712402,4.4039998054504395 14.307000160217285,4.610000133514404 14.010000228881836,5.019999980926514 C13.713000297546387,5.429999828338623 13.564000129699707,6.0370001792907715 13.564000129699707,6.8420000076293945z M12.479999542236328,6.718999862670898 C12.479999542236328,5.745999813079834 12.711000442504883,4.965000152587891 13.17199993133545,4.375 C13.633000373840332,3.7809998989105225 14.236000061035156,3.4839999675750732 14.982000350952148,3.4839999675750732 C15.723999977111816,3.4839999675750732 16.312000274658203,3.73799991607666 16.746000289916992,4.245999813079834 C16.746000289916992,4.245999813079834 16.746000289916992,0.9409999847412109 16.746000289916992,0.9409999847412109 C16.746000289916992,0.9409999847412109 17.829999923706055,0.9409999847412109 17.829999923706055,0.9409999847412109 C17.829999923706055,0.9409999847412109 17.829999923706055,9.940999984741211 17.829999923706055,9.940999984741211 C17.829999923706055,9.940999984741211 16.833999633789062,9.940999984741211 16.833999633789062,9.940999984741211 C16.833999633789062,9.940999984741211 16.7810001373291,9.26200008392334 16.7810001373291,9.26200008392334 C16.347000122070312,9.793000221252441 15.744000434875488,10.059000015258789 14.970999717712402,10.059000015258789 C14.237000465393066,10.059000015258789 13.63700008392334,9.758000373840332 13.17199993133545,9.156000137329102 C12.711000442504883,8.553999900817871 12.479999542236328,7.769999980926514 12.479999542236328,6.801000118255615 C12.479999542236328,6.801000118255615 12.479999542236328,6.718999862670898 12.479999542236328,6.718999862670898z M11.032999992370605,5.998000144958496 C11.032999992370605,5.998000144958496 7.335999965667725,5.998000144958496 7.335999965667725,5.998000144958496 C7.335999965667725,5.998000144958496 7.335999965667725,9.020999908447266 7.335999965667725,9.020999908447266 C7.335999965667725,9.020999908447266 11.630999565124512,9.020999908447266 11.630999565124512,9.020999908447266 C11.630999565124512,9.020999908447266 11.630999565124512,9.940999984741211 11.630999565124512,9.940999984741211 C11.630999565124512,9.940999984741211 6.210999965667725,9.940999984741211 6.210999965667725,9.940999984741211 C6.210999965667725,9.940999984741211 6.210999965667725,1.409999966621399 6.210999965667725,1.409999966621399 C6.210999965667725,1.409999966621399 11.571999549865723,1.409999966621399 11.571999549865723,1.409999966621399 C11.571999549865723,1.409999966621399 11.571999549865723,2.3359999656677246 11.571999549865723,2.3359999656677246 C11.571999549865723,2.3359999656677246 7.335999965667725,2.3359999656677246 7.335999965667725,2.3359999656677246 C7.335999965667725,2.3359999656677246 7.335999965667725,5.078000068664551 7.335999965667725,5.078000068664551 C7.335999965667725,5.078000068664551 11.032999992370605,5.078000068664551 11.032999992370605,5.078000068664551 C11.032999992370605,5.078000068664551 11.032999992370605,5.998000144958496 11.032999992370605,5.998000144958496z"></path></g><g opacity="0.5" transform="matrix(1,0,0,1,71.33599853515625,10.059000015258789)"><path fill="rgb(0,0,0)" fill-opacity="1" d=" M69.03299713134766,8.446999549865723 C69.03299713134766,8.446999549865723 70.25199890136719,3.6019999980926514 70.25199890136719,3.6019999980926514 C70.25199890136719,3.6019999980926514 71.33599853515625,3.6019999980926514 71.33599853515625,3.6019999980926514 C71.33599853515625,3.6019999980926514 69.48999786376953,9.940999984741211 69.48999786376953,9.940999984741211 C69.48999786376953,9.940999984741211 68.61100006103516,9.940999984741211 68.61100006103516,9.940999984741211 C68.61100006103516,9.940999984741211 67.06999969482422,5.13700008392334 67.06999969482422,5.13700008392334 C67.06999969482422,5.13700008392334 65.56999969482422,9.940999984741211 65.56999969482422,9.940999984741211 C65.56999969482422,9.940999984741211 64.69100189208984,9.940999984741211 64.69100189208984,9.940999984741211 C64.69100189208984,9.940999984741211 62.85200119018555,3.6019999980926514 62.85200119018555,3.6019999980926514 C62.85200119018555,3.6019999980926514 63.93000030517578,3.6019999980926514 63.93000030517578,3.6019999980926514 C63.93000030517578,3.6019999980926514 65.1780014038086,8.347999572753906 65.1780014038086,8.347999572753906 C65.1780014038086,8.347999572753906 66.65399932861328,3.6019999980926514 66.65399932861328,3.6019999980926514 C66.65399932861328,3.6019999980926514 67.5270004272461,3.6019999980926514 67.5270004272461,3.6019999980926514 C67.5270004272461,3.6019999980926514 69.03299713134766,8.446999549865723 69.03299713134766,8.446999549865723z M59.553001403808594,4.375 C59.1150016784668,4.375 58.74800109863281,4.534999847412109 58.45100021362305,4.855000019073486 C58.15399932861328,5.171000003814697 57.970001220703125,5.617000102996826 57.900001525878906,6.190999984741211 C57.900001525878906,6.190999984741211 61.07600021362305,6.190999984741211 61.07600021362305,6.190999984741211 C61.07600021362305,6.190999984741211 61.07600021362305,6.109000205993652 61.07600021362305,6.109000205993652 C61.04499816894531,5.558000087738037 60.89699935913086,5.132999897003174 60.63100051879883,4.831999778747559 C60.3650016784668,4.5269999504089355 60.00600051879883,4.375 59.553001403808594,4.375z M59.6879997253418,10.059000015258789 C58.82899856567383,10.059000015258789 58.12900161743164,9.777000427246094 57.59000015258789,9.21500015258789 C57.05099868774414,8.64900016784668 56.78099822998047,7.892000198364258 56.78099822998047,6.947000026702881 C56.78099822998047,6.947000026702881 56.78099822998047,6.748000144958496 56.78099822998047,6.748000144958496 C56.78099822998047,6.11899995803833 56.9010009765625,5.558000087738037 57.138999938964844,5.065999984741211 C57.38100051879883,4.570000171661377 57.715999603271484,4.183000087738037 58.145999908447266,3.9059998989105225 C58.58000183105469,3.625 59.04899978637695,3.4839999675750732 59.553001403808594,3.4839999675750732 C60.37699890136719,3.4839999675750732 61.018001556396484,3.75600004196167 61.474998474121094,4.298999786376953 C61.93199920654297,4.8420000076293945 62.15999984741211,5.61899995803833 62.15999984741211,6.63100004196167 C62.15999984741211,6.63100004196167 62.15999984741211,7.081999778747559 62.15999984741211,7.081999778747559 C62.15999984741211,7.081999778747559 57.8650016784668,7.081999778747559 57.8650016784668,7.081999778747559 C57.88100051879883,7.706999778747559 58.0620002746582,8.213000297546387 58.40999984741211,8.600000381469727 C58.762001037597656,8.982999801635742 59.207000732421875,9.173999786376953 59.74599838256836,9.173999786376953 C60.12900161743164,9.173999786376953 60.452999114990234,9.095000267028809 60.71900177001953,8.939000129699707 C60.98500061035156,8.782999992370605 61.21699905395508,8.576000213623047 61.41600036621094,8.317999839782715 C61.41600036621094,8.317999839782715 62.077999114990234,8.833999633789062 62.077999114990234,8.833999633789062 C61.547000885009766,9.649999618530273 60.75,10.059000015258789 59.6879997253418,10.059000015258789z M54.14500045776367,1.9199999570846558 C54.14500045776367,1.74399995803833 54.198001861572266,1.5959999561309814 54.303001403808594,1.475000023841858 C54.4119987487793,1.3539999723434448 54.571998596191406,1.2929999828338623 54.78300094604492,1.2929999828338623 C54.99399948120117,1.2929999828338623 55.154998779296875,1.3539999723434448 55.263999938964844,1.475000023841858 C55.37300109863281,1.5959999561309814 55.428001403808594,1.74399995803833 55.428001403808594,1.9199999570846558 C55.428001403808594,2.0959999561309814 55.37300109863281,2.242000102996826 55.263999938964844,2.3589999675750732 C55.154998779296875,2.4760000705718994 54.99399948120117,2.5350000858306885 54.78300094604492,2.5350000858306885 C54.571998596191406,2.5350000858306885 54.4119987487793,2.4760000705718994 54.303001403808594,2.3589999675750732 C54.198001861572266,2.242000102996826 54.14500045776367,2.0959999561309814 54.14500045776367,1.9199999570846558z M55.316001892089844,9.940999984741211 C55.316001892089844,9.940999984741211 54.231998443603516,9.940999984741211 54.231998443603516,9.940999984741211 C54.231998443603516,9.940999984741211 54.231998443603516,3.6019999980926514 54.231998443603516,3.6019999980926514 C54.231998443603516,3.6019999980926514 55.316001892089844,3.6019999980926514 55.316001892089844,3.6019999980926514 C55.316001892089844,3.6019999980926514 55.316001892089844,9.940999984741211 55.316001892089844,9.940999984741211z M50.417999267578125,8.470999717712402 C50.417999267578125,8.470999717712402 51.987998962402344,3.6019999980926514 51.987998962402344,3.6019999980926514 C51.987998962402344,3.6019999980926514 53.09600067138672,3.6019999980926514 53.09600067138672,3.6019999980926514 C53.09600067138672,3.6019999980926514 50.821998596191406,9.940999984741211 50.821998596191406,9.940999984741211 C50.821998596191406,9.940999984741211 49.99599838256836,9.940999984741211 49.99599838256836,9.940999984741211 C49.99599838256836,9.940999984741211 47.69900131225586,3.6019999980926514 47.69900131225586,3.6019999980926514 C47.69900131225586,3.6019999980926514 48.80699920654297,3.6019999980926514 48.80699920654297,3.6019999980926514 C48.80699920654297,3.6019999980926514 50.417999267578125,8.470999717712402 50.417999267578125,8.470999717712402z M44.54100036621094,4.375 C44.10300064086914,4.375 43.736000061035156,4.534999847412109 43.43899917602539,4.855000019073486 C43.141998291015625,5.171000003814697 42.95899963378906,5.617000102996826 42.888999938964844,6.190999984741211 C42.888999938964844,6.190999984741211 46.06399917602539,6.190999984741211 46.06399917602539,6.190999984741211 C46.06399917602539,6.190999984741211 46.06399917602539,6.109000205993652 46.06399917602539,6.109000205993652 C46.03300094604492,5.558000087738037 45.8849983215332,5.132999897003174 45.61899948120117,4.831999778747559 C45.35300064086914,4.5269999504089355 44.99399948120117,4.375 44.54100036621094,4.375z M44.67599868774414,10.059000015258789 C43.81700134277344,10.059000015258789 43.117000579833984,9.777000427246094 42.577999114990234,9.21500015258789 C42.03900146484375,8.64900016784668 41.77000045776367,7.892000198364258 41.77000045776367,6.947000026702881 C41.77000045776367,6.947000026702881 41.77000045776367,6.748000144958496 41.77000045776367,6.748000144958496 C41.77000045776367,6.11899995803833 41.888999938964844,5.558000087738037 42.12699890136719,5.065999984741211 C42.36899948120117,4.570000171661377 42.70500183105469,4.183000087738037 43.1349983215332,3.9059998989105225 C43.569000244140625,3.625 44.0369987487793,3.4839999675750732 44.54100036621094,3.4839999675750732 C45.3650016784668,3.4839999675750732 46.00600051879883,3.75600004196167 46.4630012512207,4.298999786376953 C46.91999816894531,4.8420000076293945 47.14799880981445,5.61899995803833 47.14799880981445,6.63100004196167 C47.14799880981445,6.63100004196167 47.14799880981445,7.081999778747559 47.14799880981445,7.081999778747559 C47.14799880981445,7.081999778747559 42.854000091552734,7.081999778747559 42.854000091552734,7.081999778747559 C42.869998931884766,7.706999778747559 43.04999923706055,8.213000297546387 43.39799880981445,8.600000381469727 C43.75,8.982999801635742 44.19499969482422,9.173999786376953 44.73400115966797,9.173999786376953 C45.117000579833984,9.173999786376953 45.441001892089844,9.095000267028809 45.707000732421875,8.939000129699707 C45.972999572753906,8.782999992370605 46.20500183105469,8.576000213623047 46.40399932861328,8.317999839782715 C46.40399932861328,8.317999839782715 47.066001892089844,8.833999633789062 47.066001892089844,8.833999633789062 C46.53499984741211,9.649999618530273 45.737998962402344,10.059000015258789 44.67599868774414,10.059000015258789z M41.15999984741211,4.573999881744385 C40.99599838256836,4.546999931335449 40.81800079345703,4.5329999923706055 40.62699890136719,4.5329999923706055 C39.91600036621094,4.5329999923706055 39.433998107910156,4.835999965667725 39.18000030517578,5.440999984741211 C39.18000030517578,5.440999984741211 39.18000030517578,9.940999984741211 39.18000030517578,9.940999984741211 C39.18000030517578,9.940999984741211 38.09600067138672,9.940999984741211 38.09600067138672,9.940999984741211 C38.09600067138672,9.940999984741211 38.09600067138672,3.6019999980926514 38.09600067138672,3.6019999980926514 C38.09600067138672,3.6019999980926514 39.150001525878906,3.6019999980926514 39.150001525878906,3.6019999980926514 C39.150001525878906,3.6019999980926514 39.167999267578125,4.334000110626221 39.167999267578125,4.334000110626221 C39.52299880981445,3.7679998874664307 40.02799987792969,3.4839999675750732 40.68000030517578,3.4839999675750732 C40.89099884033203,3.4839999675750732 41.05099868774414,3.510999917984009 41.15999984741211,3.565999984741211 C41.15999984741211,3.565999984741211 41.15999984741211,4.573999881744385 41.15999984741211,4.573999881744385z M31.81999969482422,5.682000160217285 C31.81999969482422,5.682000160217285 33.84199905395508,5.682000160217285 33.84199905395508,5.682000160217285 C34.444000244140625,5.682000160217285 34.904998779296875,5.540999889373779 35.224998474121094,5.260000228881836 C35.54499816894531,4.974999904632568 35.70500183105469,4.564000129699707 35.70500183105469,4.0289998054504395 C35.70500183105469,3.5209999084472656 35.54499816894531,3.115999937057495 35.224998474121094,2.811000108718872 C34.904998779296875,2.50600004196167 34.46500015258789,2.3480000495910645 33.90599822998047,2.3359999656677246 C33.90599822998047,2.3359999656677246 31.81999969482422,2.3359999656677246 31.81999969482422,2.3359999656677246 C31.81999969482422,2.3359999656677246 31.81999969482422,5.682000160217285 31.81999969482422,5.682000160217285z M31.81999969482422,6.6020002365112305 C31.81999969482422,6.6020002365112305 31.81999969482422,9.940999984741211 31.81999969482422,9.940999984741211 C31.81999969482422,9.940999984741211 30.69499969482422,9.940999984741211 30.69499969482422,9.940999984741211 C30.69499969482422,9.940999984741211 30.69499969482422,1.409999966621399 30.69499969482422,1.409999966621399 C30.69499969482422,1.409999966621399 33.84199905395508,1.409999966621399 33.84199905395508,1.409999966621399 C34.7760009765625,1.409999966621399 35.50600051879883,1.6480000019073486 36.03300094604492,2.125 C36.56399917602539,2.6019999980926514 36.83000183105469,3.2330000400543213 36.83000183105469,4.01800012588501 C36.83000183105469,4.8460001945495605 36.57099914550781,5.485000133514404 36.05099868774414,5.934000015258789 C35.53499984741211,6.379000186920166 34.79499816894531,6.6020002365112305 33.83000183105469,6.6020002365112305 C33.83000183105469,6.6020002365112305 31.81999969482422,6.6020002365112305 31.81999969482422,6.6020002365112305z"></path></g></g><g style="display: block;" transform="matrix(2.6296300888061523,0,0,2.6296300888061523,186.99996948242188,204.92591857910156)" opacity="1"><g opacity="1" transform="matrix(1,0,0,1,81,16)"><path stroke-linecap="butt" stroke-linejoin="miter" fill-opacity="0" stroke-miterlimit="4" stroke="rgb(227,228,229)" stroke-opacity="1" stroke-width="1" d=" M-74.9749984741211,-16 C-78.3030014038086,-16 -81,-13.303000450134277 -81,-9.975000381469727 C-81,-9.975000381469727 -81,9.975000381469727 -81,9.975000381469727 C-81,13.303000450134277 -78.3030014038086,16 -74.9749984741211,16 C-74.9749984741211,16 74.9749984741211,16 74.9749984741211,16 C78.3030014038086,16 81,13.303000450134277 81,9.975000381469727 C81,9.975000381469727 81,-9.975000381469727 81,-9.975000381469727 C81,-13.303000450134277 78.3030014038086,-16 74.9749984741211,-16 C74.9749984741211,-16 -74.9749984741211,-16 -74.9749984741211,-16z"></path></g><g opacity="1" transform="matrix(1,0,0,1,40.5,16)"><path stroke-linecap="butt" stroke-linejoin="miter" fill-opacity="0" stroke-miterlimit="4" stroke="rgb(227,228,229)" stroke-opacity="1" stroke-width="1" d=" M-34.474998474121094,-16 C-37.803001403808594,-16 -40.5,-13.303000450134277 -40.5,-9.975000381469727 C-40.5,-9.975000381469727 -40.5,9.975000381469727 -40.5,9.975000381469727 C-40.5,13.303000450134277 -37.803001403808594,16 -34.474998474121094,16 C-34.474998474121094,16 34.474998474121094,16 34.474998474121094,16 C37.803001403808594,16 40.5,13.303000450134277 40.5,9.975000381469727 C40.5,9.975000381469727 40.5,-9.975000381469727 40.5,-9.975000381469727 C40.5,-13.303000450134277 37.803001403808594,-16 34.474998474121094,-16 C34.474998474121094,-16 -34.474998474121094,-16 -34.474998474121094,-16z"></path></g></g></g></svg>