<svg xmlns="http://www.w3.org/2000/svg" width="48" height="28" fill="none"><path fill="#9B5C8F" fill-rule="evenodd" d="M4.998.333h37.985c2.404 0 4.35 1.893 4.35 4.231v14.103c0 2.338-1.946 4.23-4.35 4.23H29.361l1.87 4.454-8.223-4.454H5.017c-2.404 0-4.35-1.892-4.35-4.23V4.564c-.02-2.32 1.927-4.23 4.33-4.23z" clip-rule="evenodd"/><path fill="#fff" d="M2.994 4.174c.268-.352.668-.538 1.202-.575q1.46-.111 1.66 1.336c.592 3.878 1.24 7.163 1.927 9.853l4.178-7.738q.573-1.057 1.431-1.113c.84-.056 1.355.464 1.565 1.559.477 2.468 1.087 4.565 1.812 6.346.496-4.713 1.336-8.109 2.519-10.206.286-.52.706-.78 1.259-.816.439-.037.84.092 1.202.37.362.28.553.632.591 1.058.02.334-.038.613-.19.891-.745 1.336-1.355 3.581-1.851 6.699-.477 3.025-.649 5.381-.534 7.07q.057.696-.23 1.224c-.228.409-.572.631-1.01.668-.497.038-1.012-.185-1.508-.686-1.774-1.763-3.186-4.398-4.216-7.905a346 346 0 0 0-2.748 5.344c-1.125 2.097-2.079 3.173-2.88 3.229-.515.037-.954-.39-1.336-1.28q-1.46-3.647-3.148-14.084c-.057-.483.038-.91.305-1.244m41.02 2.914c-.687-1.17-1.698-1.874-3.053-2.153a5 5 0 0 0-1.03-.111c-1.832 0-3.32.928-4.484 2.783q-1.488 2.367-1.488 5.233 0 2.144.916 3.674c.687 1.17 1.698 1.874 3.053 2.153q.543.111 1.03.111c1.85 0 3.339-.928 4.483-2.783.992-1.596 1.488-3.34 1.488-5.252 0-1.447-.305-2.653-.915-3.655m-2.404 5.14c-.267 1.225-.744 2.134-1.45 2.746-.554.483-1.069.687-1.546.594-.458-.093-.84-.483-1.125-1.206a4.6 4.6 0 0 1-.344-1.689c0-.464.038-.928.134-1.354A5.9 5.9 0 0 1 38.29 9.11c.63-.909 1.297-1.28 1.984-1.15.458.093.84.482 1.126 1.206.229.575.343 1.15.343 1.689 0 .482-.057.946-.133 1.373m-9.559-5.14c-.687-1.17-1.717-1.874-3.052-2.153a5 5 0 0 0-1.03-.111c-1.832 0-3.32.928-4.484 2.783q-1.488 2.367-1.488 5.233 0 2.144.916 3.674c.686 1.17 1.698 1.874 3.052 2.153q.544.111 1.03.111c1.851 0 3.34-.928 4.484-2.783.992-1.596 1.488-3.34 1.488-5.252 0-1.447-.305-2.653-.916-3.655m-2.404 5.14c-.267 1.225-.744 2.134-1.45 2.746-.553.483-1.068.687-1.545.594-.458-.093-.84-.483-1.126-1.206a4.6 4.6 0 0 1-.343-1.689c0-.464.038-.928.134-1.354a5.9 5.9 0 0 1 1.01-2.209c.63-.909 1.298-1.28 1.985-1.15.458.093.84.482 1.125 1.206.23.575.344 1.15.344 1.689 0 .482-.038.946-.134 1.373"/></svg>